<svg xmlns="http://www.w3.org/2000/svg" viewBox="0 0 26.44 34.25"><defs><style>.cls-1{fill:#fff;}</style></defs><g id="Calque_2" data-name="Calque 2"><g id="Heander"><path class="cls-1" d="M13.22,34.25A6.47,6.47,0,0,1,9.6,33.12L1.12,27.38A2.54,2.54,0,0,1,4,23.17l8.48,5.73a1.29,1.29,0,0,0,1.54,0l8.48-5.73a2.54,2.54,0,1,1,2.85,4.21l-8.48,5.74A6.47,6.47,0,0,1,13.22,34.25Z"/><path class="cls-1" d="M13.22,23A6.47,6.47,0,0,1,9.6,21.91L1.12,16.17A2.54,2.54,0,1,1,4,12l8.48,5.73a1.29,1.29,0,0,0,1.54,0L22.47,12a2.54,2.54,0,1,1,2.85,4.21l-8.48,5.74A6.47,6.47,0,0,1,13.22,23Z"/><path class="cls-1" d="M13.22,11.52A6.47,6.47,0,0,1,9.6,10.39L1.12,4.65A2.54,2.54,0,0,1,4,.44l8.48,5.73a1.29,1.29,0,0,0,1.54,0L22.47.44a2.54,2.54,0,1,1,2.85,4.21l-8.48,5.74A6.47,6.47,0,0,1,13.22,11.52Z"/></g></g></svg>