<svg xmlns="http://www.w3.org/2000/svg" viewBox="0 0 152.24 69.39"><defs><style>.cls-1{fill:#fff;}</style></defs><g id="Calque_2" data-name="Calque 2"><g id="Our_services" data-name="Our services"><g id="Content"><g id="Our_skills" data-name="Our skills"><g id="Graphic"><g id="Label"><g id="Label_2" data-name="Label 2"><path class="cls-1" d="M117.54,69.39A34.4,34.4,0,0,1,94,60.18H58.23A34.69,34.69,0,1,1,34.69,0h82.85a34.7,34.7,0,1,1,0,69.39ZM55.25,52.93H97L98.05,54A27.44,27.44,0,1,0,117.54,7.25H34.69A27.45,27.45,0,1,0,54.19,54Z"/><circle class="cls-1" cx="117.54" cy="19.35" r="6.01"/><circle class="cls-1" cx="117.54" cy="50.42" r="6.01"/><circle class="cls-1" cx="133.08" cy="34.89" r="6.01"/><circle class="cls-1" cx="102.01" cy="34.89" r="6.01"/><path class="cls-1" d="M37.14,56H32.25a5.36,5.36,0,0,1-5.36-5.35V42.49H18.72a5.36,5.36,0,0,1-5.36-5.35V32.25a5.37,5.37,0,0,1,5.36-5.36h8.17V18.72a5.37,5.37,0,0,1,5.36-5.36h4.89a5.36,5.36,0,0,1,5.35,5.36v8.17h8.18A5.36,5.36,0,0,1,56,32.25v4.89a5.36,5.36,0,0,1-5.35,5.35H42.49v8.18A5.36,5.36,0,0,1,37.14,56ZM32.4,50.51H37V42.34A5.36,5.36,0,0,1,42.34,37h8.17V32.4H42.34A5.36,5.36,0,0,1,37,27.05V18.87H32.4v8.18a5.36,5.36,0,0,1-5.35,5.35H18.87V37h8.18a5.36,5.36,0,0,1,5.35,5.36Z"/><rect class="cls-1" x="57.56" y="11.24" width="9.86" height="3.48" rx="1.64"/><rect class="cls-1" x="68.56" y="43.13" width="15.12" height="3.48" rx="1.64"/><rect class="cls-1" x="84.82" y="11.24" width="9.86" height="3.48" rx="1.64"/></g></g></g></g></g></g></g></svg>