<svg xmlns="http://www.w3.org/2000/svg" viewBox="0 0 62.04 60.34"><defs><style>.cls-1{fill:#49aa9e80;}</style></defs><g id="Calque_2" data-name="Calque 2"><g id="About"><g id="Content"><g id="How_we_work" data-name="How we work"><g id="Time_ligne" data-name="Time ligne"><path class="cls-1" d="M36.34,51.24l2.14-5.11-3.62-2.31a15.51,15.51,0,0,0,0-5.35l3.65-2.28-2.1-5.13-4.2.93a15.77,15.77,0,0,0-3.76-3.8l1-4.19-5.11-2.14L22,25.48a15.45,15.45,0,0,0-5.34,0l-2.29-3.65-5.12,2.1.92,4.2a15.77,15.77,0,0,0-3.8,3.76l-4.18-1L0,36l3.62,2.31a16,16,0,0,0,0,5.35L0,46l2.1,5.13,4.2-.92A15.38,15.38,0,0,0,10.06,54l-1,4.19,5.1,2.15,2.32-3.63a15.76,15.76,0,0,0,5.35,0l2.28,3.64,5.13-2.1L28.35,54a15.59,15.59,0,0,0,3.8-3.76ZM15.2,50.75a10.49,10.49,0,1,1,13.74-5.62A10.5,10.5,0,0,1,15.2,50.75Z"/><circle class="cls-1" cx="19.26" cy="41.08" r="7.14"/><path class="cls-1" d="M54.43,30.88,58,27.8l-1.88-3.11a13.49,13.49,0,0,0,2-4.05l3.62-.38L62,15.59l-3.53-.87a13.42,13.42,0,0,0-1.44-4.29l2.29-2.82L56.29,4.07,53.18,6a13.49,13.49,0,0,0-4-2L48.75.32,44.08,0l-.87,3.53A13.42,13.42,0,0,0,38.92,5L36.1,2.68,32.56,5.75l1.89,3.11a13.49,13.49,0,0,0-2,4.05l-3.62.38L28.49,18l3.53.87a13.42,13.42,0,0,0,1.44,4.29l-2.3,2.82,3.08,3.54,3.11-1.89a13.49,13.49,0,0,0,4,2l.38,3.62,4.67.32L47.32,30a13.42,13.42,0,0,0,4.29-1.44ZM38.57,22.6a8.87,8.87,0,1,1,12.52.87A8.88,8.88,0,0,1,38.57,22.6Z"/><circle class="cls-1" cx="45.26" cy="16.78" r="5.53"/></g></g></g></g></g></svg>