<?xml version="1.0" encoding="UTF-8" standalone="no"?>
<!DOCTYPE svg PUBLIC "-//W3C//DTD SVG 1.1//EN" "http://www.w3.org/Graphics/SVG/1.1/DTD/svg11.dtd">
<svg width="100%" height="100%" viewBox="0 0 698 1080" version="1.1" xmlns="http://www.w3.org/2000/svg" xmlns:xlink="http://www.w3.org/1999/xlink" xml:space="preserve" xmlns:serif="http://www.serif.com/" style="fill-rule:evenodd;clip-rule:evenodd;stroke-linejoin:round;stroke-miterlimit:2;">
    <g transform="matrix(1,0,0,1,601.343,-1434.04)">
        <g transform="matrix(20.1994,0,0,20.1994,-6421.57,-39256.5)">
            <circle cx="305.404" cy="2056.35" r="4.02" style="fill:white;"/>
        </g>
        <g transform="matrix(23.6606,0,0,23.6606,-7499.41,-46399.8)">
            <path d="M321.022,2029.03L321.022,2059.94C321.022,2064.01 317.719,2067.31 313.652,2067.31L298.912,2067.31C294.844,2067.31 291.542,2064.01 291.542,2059.94L291.542,2029.03C291.542,2024.97 294.844,2021.66 298.912,2021.66L313.652,2021.66C317.719,2021.66 321.022,2024.97 321.022,2029.03ZM317.022,2029.03C317.022,2027.17 315.512,2025.66 313.652,2025.66L298.912,2025.66C297.052,2025.66 295.542,2027.17 295.542,2029.03L295.542,2059.94C295.542,2061.8 297.052,2063.31 298.912,2063.31L313.652,2063.31C315.512,2063.31 317.022,2061.8 317.022,2059.94L317.022,2029.03Z" style="fill:white;"/>
        </g>
        <g transform="matrix(31.0182,0,0,34.3841,-9780.97,-68126.8)">
            <path d="M311.523,2025.85C311.523,2026.96 310.522,2027.86 309.288,2027.86L305.085,2027.86C303.852,2027.86 302.85,2026.96 302.85,2025.85C302.85,2024.73 303.852,2023.83 305.085,2023.83L309.288,2023.83C310.522,2023.83 311.523,2024.73 311.523,2025.85Z" style="fill:white;"/>
        </g>
    </g>
</svg>
