<?xml version="1.0" encoding="UTF-8" standalone="no"?>
<!DOCTYPE svg PUBLIC "-//W3C//DTD SVG 1.1//EN" "http://www.w3.org/Graphics/SVG/1.1/DTD/svg11.dtd">
<svg width="100%" height="100%" viewBox="0 0 1080 1692" version="1.1" xmlns="http://www.w3.org/2000/svg" xmlns:xlink="http://www.w3.org/1999/xlink" xml:space="preserve" xmlns:serif="http://www.serif.com/" style="fill-rule:evenodd;clip-rule:evenodd;stroke-linejoin:round;stroke-miterlimit:2;">
    <g transform="matrix(34.589,0,0,34.5748,12274.3,-77868)">
        <path d="M-341.25,2252.16L-341.25,2255.67L-341.579,2255.77L-342.596,2256.32L-343.478,2257.05L-344.206,2257.93L-344.758,2258.95L-345.109,2260.08L-345.23,2261.28L-345.23,2265.49L-345.109,2266.69L-344.758,2267.82L-344.206,2268.84L-343.478,2269.72L-342.596,2270.45L-341.579,2271L-341.25,2271.1L-341.25,2274.52C-345.956,2274.3 -350.337,2273.32 -354.093,2271.76C-354.344,2271.65 -354.605,2271.6 -354.862,2271.6L-354.862,2267.65C-354.862,2259.74 -348.874,2253.19 -341.25,2252.16ZM-337.25,2252.17C-329.625,2253.2 -323.638,2259.74 -323.638,2267.65L-323.638,2271.6C-323.894,2271.6 -324.155,2271.65 -324.407,2271.76C-328.162,2273.32 -332.543,2274.3 -337.25,2274.52L-337.25,2271.1L-336.92,2271L-335.903,2270.45L-335.021,2269.72L-334.294,2268.84L-333.741,2267.82L-333.391,2266.69L-333.269,2265.49L-333.269,2261.28L-333.391,2260.08L-333.741,2258.95L-334.294,2257.93L-335.021,2257.05L-335.903,2256.32L-336.92,2255.77L-337.25,2255.67L-337.25,2252.17ZM-337.269,2261.28L-337.269,2265.49C-337.269,2266.58 -338.157,2267.47 -339.25,2267.47C-340.343,2267.47 -341.23,2266.58 -341.23,2265.49L-341.23,2261.28C-341.23,2260.19 -340.343,2259.3 -339.25,2259.3C-338.157,2259.3 -337.269,2260.19 -337.269,2261.28ZM-323.638,2275.76L-323.638,2285.49C-323.638,2294.11 -330.633,2301.1 -339.25,2301.1C-347.866,2301.1 -354.862,2294.11 -354.862,2285.49L-354.862,2275.76C-350.299,2277.54 -344.958,2278.57 -339.25,2278.57C-333.542,2278.57 -328.201,2277.54 -323.638,2275.76Z" style="fill:white;"/>
    </g>
</svg>
