<svg xmlns="http://www.w3.org/2000/svg" viewBox="0 0 69.39 100.04"><defs><style>.cls-1{fill:#fff;}</style></defs><g id="Calque_2" data-name="Calque 2"><g id="Our_services" data-name="Our services"><g id="Content"><g id="Our_skills" data-name="Our skills"><g id="Graphic"><g id="Label"><g id="Label_3" data-name="Label 3"><path class="cls-1" d="M34.69,0A34.73,34.73,0,0,0,0,34.69V65.35a34.7,34.7,0,0,0,69.39,0V34.69A34.74,34.74,0,0,0,34.69,0ZM62.27,34.69v5.56h-24V37.08a9.61,9.61,0,0,0,6-8.89V20.92a9.61,9.61,0,0,0-6-8.89V7.34A27.62,27.62,0,0,1,62.27,34.69ZM37.15,20.92v7.27a2.46,2.46,0,1,1-4.92,0V20.92a2.46,2.46,0,0,1,4.92,0Zm-6-13.58V12a9.59,9.59,0,0,0-6,8.89v7.27a9.59,9.59,0,0,0,6,8.89v3.17h-24V34.69A27.62,27.62,0,0,1,31.14,7.34Zm3.55,85.58A27.61,27.61,0,0,1,7.11,65.35v-18H62.27v18A27.61,27.61,0,0,1,34.69,92.92Z"/></g></g></g></g></g></g></g></svg>