<svg xmlns="http://www.w3.org/2000/svg" viewBox="0 0 71.13 141.6"><defs><style>.cls-1{fill:#fff;}</style></defs><g id="Calque_2" data-name="Calque 2"><g id="Our_services" data-name="Our services"><g id="Content"><g id="Our_skills" data-name="Our skills"><g id="Graphic"><g id="Label"><g id="Label_1" data-name="Label 1"><path class="cls-1" d="M71.08,18.91A20.25,20.25,0,0,0,50.9,0H20.23A20.25,20.25,0,0,0,.05,18.91H0V123.24A18.39,18.39,0,0,0,18.36,141.6H52.77a18.39,18.39,0,0,0,18.36-18.36V18.91ZM20.23,7.3H50.9A13,13,0,0,1,63.77,18.91H7.36A13,13,0,0,1,20.23,7.3Zm43.6,115.94A11.07,11.07,0,0,1,52.77,134.3H18.36A11.07,11.07,0,0,1,7.3,123.24v-8.77H63.83Zm0-16.07H7.3v-81H63.83Z"/><path class="cls-1" d="M41.42,11.35H29.71A1.76,1.76,0,0,0,28,13.1h0a1.76,1.76,0,0,0,1.76,1.76H41.42a1.76,1.76,0,1,0,0-3.51Z"/><path class="cls-1" d="M35.57,130.43a6,6,0,1,0-6.05-6.05A6,6,0,0,0,35.57,130.43Z"/></g></g></g></g></g></g></g></svg>