<svg xmlns="http://www.w3.org/2000/svg" viewBox="0 0 91.3 45.8"><defs><style>.cls-1{fill:#49aa9e;}.cls-2{fill:#35776d;}</style></defs><g id="Calque_2" data-name="Calque 2"><g id="About"><g id="Content"><g id="How_we_work" data-name="How we work"><g id="Time_ligne" data-name="Time ligne"><path class="cls-1" d="M47.6,10.35h-33A14.61,14.61,0,0,0,0,24.92V45.8H47.6A14.61,14.61,0,0,0,62.16,31.23V24.92A14.61,14.61,0,0,0,47.6,10.35ZM35.4,36.89H10.77a1.45,1.45,0,0,1,0-2.89H35.4a1.45,1.45,0,1,1,0,2.89Zm15.82-7.37H10.77a1.45,1.45,0,0,1,0-2.89H51.22a1.45,1.45,0,0,1,0,2.89Zm0-7.36H10.77a1.44,1.44,0,1,1,0-2.88H51.22a1.44,1.44,0,1,1,0,2.88Z"/><path class="cls-2" d="M51.22,19.28H10.77a1.44,1.44,0,1,0,0,2.88H51.22a1.44,1.44,0,1,0,0-2.88Z"/><path class="cls-2" d="M51.22,26.63H10.77a1.45,1.45,0,0,0,0,2.89H51.22a1.45,1.45,0,0,0,0-2.89Z"/><path class="cls-2" d="M35.4,34H10.77a1.45,1.45,0,0,0,0,2.89H35.4a1.45,1.45,0,1,0,0-2.89Z"/><path class="cls-1" d="M76.73,0h-33A14.61,14.61,0,0,0,31.27,7H47.6A17.82,17.82,0,0,1,59,11.1h22.5a1.44,1.44,0,0,1,0,2.88H61.8a18.38,18.38,0,0,1,2.52,4.47H81.51a1.45,1.45,0,0,1,0,2.89H65.17a17.6,17.6,0,0,1,.36,3.58v.9h16a1.45,1.45,0,0,1,0,2.89h-16v2.52a18.24,18.24,0,0,1-.5,4.21H91.3V14.57A14.61,14.61,0,0,0,76.73,0Z"/><path class="cls-2" d="M83,12.54a1.45,1.45,0,0,0-1.44-1.44H59A18.1,18.1,0,0,1,61.8,14H81.51A1.44,1.44,0,0,0,83,12.54Z"/><path class="cls-2" d="M83,19.9a1.45,1.45,0,0,0-1.44-1.45H64.32a17.49,17.49,0,0,1,.85,2.89H81.51A1.45,1.45,0,0,0,83,19.9Z"/><path class="cls-2" d="M83,27.26a1.45,1.45,0,0,0-1.44-1.44h-16v2.89h16A1.45,1.45,0,0,0,83,27.26Z"/></g></g></g></g></g></svg>