<svg xmlns="http://www.w3.org/2000/svg" viewBox="0 0 61.44 62.82"><defs><style>.cls-1{fill:#49aa9e80;}</style></defs><g id="Calque_2" data-name="Calque 2"><g id="About"><g id="Content"><g id="How_we_work" data-name="How we work"><g id="Time_ligne" data-name="Time ligne"><path class="cls-1" d="M31.54,44.74l-7-7-2.64,2.64L20,42.33a10.47,10.47,0,0,0-13.32,12l6.21-6.21,6.59,1.76,1.77,6.59L15,62.64A10.46,10.46,0,0,0,27,49.33l2-1.95Z"/><path class="cls-1" d="M61.27,16.38l-6.21,6.21-6.59-1.77L46.7,14.23,52.91,8A10.47,10.47,0,0,0,41,21.33l-2,2-2.63,2.63,7,7L46,30.29l2-2A10.47,10.47,0,0,0,61.27,16.38Z"/><path class="cls-1" d="M19.68,0,6.17,13.51A23.51,23.51,0,0,1,0,29.82L5.16,35,15.83,24.3,48.38,56.84a4.94,4.94,0,0,0,7,0h0a4.94,4.94,0,0,0,0-7L22.83,17.3l7.08-7.08Z"/></g></g></g></g></g></svg>