<svg xmlns="http://www.w3.org/2000/svg" viewBox="0 0 158.6 92.08"><defs><style>.cls-1{fill:#fff;}</style></defs><g id="Calque_2" data-name="Calque 2"><g id="Our_services" data-name="Our services"><g id="Content"><g id="Our_skills" data-name="Our skills"><g id="Graphic"><g id="Label"><g id="Label_4" data-name="Label 4"><path class="cls-1" d="M37.48,91.61a6.19,6.19,0,0,1-4.85-2.33L1.36,50.2a6.24,6.24,0,0,1,0-7.77L33.06,2.81a6.21,6.21,0,0,1,9.71,7.76L14.18,46.31l28.15,35.2a6.21,6.21,0,0,1-4.85,10.1Z"/><path class="cls-1" d="M119.62,91.61a6.21,6.21,0,0,1-4.78-10.18l29.48-35.66-29-35.12a6.21,6.21,0,1,1,9.58-7.92l32.3,39.08a6.21,6.21,0,0,1,0,7.92L124.42,89.35A6.21,6.21,0,0,1,119.62,91.61Z"/><path class="cls-1" d="M60.87,92.08a6.2,6.2,0,0,1-5.67-8.76L91,3.67a6.21,6.21,0,0,1,11.34,5.09L66.54,88.41A6.21,6.21,0,0,1,60.87,92.08Z"/></g></g></g></g></g></g></g></svg>