<svg xmlns="http://www.w3.org/2000/svg" viewBox="0 0 142.37 142.23"><defs><style>.cls-1,.cls-2{fill:#f3b110;}.cls-1{fill-rule:evenodd;}</style></defs><g id="Calque_2" data-name="Calque 2"><g id="Job"><g id="Calque_1-2" data-name="Calque 1"><g id="Calque_3" data-name="Calque 3"><path class="cls-1" d="M54.2,10.26c3.46.1,8.17,3.5,14.7,7.61A194.69,194.69,0,0,1,100.43,43.2,174.82,174.82,0,0,1,124.5,73.42c4,6.3,7.51,10.78,7.61,14.32A63.17,63.17,0,0,0,71.18,7.93a66.08,66.08,0,0,0-17,2.33Z"/><path class="cls-1" d="M99.55,42.82c19.59,19.59,32,39.05,27.56,43.38-1.72,1.73-5.69.89-11.1-2l-.7-3.08c4.06,1.91,7,2.33,8.4,1,3.92-3.92-7.14-21.27-24.68-38.81-9.14-9.15-18.28-16.52-25.42-21l-.89-2c7.75,5,17.26,12.88,26.83,22.44Zm14.55,40.4c-.7-.42-1.4-.84-2.15-1.26l-.46-2.8c.74.42,1.44.84,2.14,1.21Zm-7.79-5A166.56,166.56,0,0,1,91.15,65.77l.75-1.54a141.68,141.68,0,0,0,14.22,11.48ZM76.78,51.41C61.29,34.47,52.29,19.08,56.12,15.25a4.53,4.53,0,0,1,.56-.42l3.54,3.83h0c-3.4,3.4,4.48,17,18.1,32ZM63.35,18l-2.43-3.31a29.72,29.72,0,0,1,6.91,2.84l1.3,2.43a20.65,20.65,0,0,0-5.78-2Z"/><path class="cls-2" d="M100.29,42.08c10.92,10.91,19.83,21.83,25.43,30.6,5.73,9,7.93,16,5.22,18.7s-9.66.52-18.71-5.22A171.68,171.68,0,0,1,89.84,68.57l.61-1.44A170,170,0,0,0,113,84.9c8.44,5.36,14.69,7.6,16.89,5.41s-.1-8.44-5.46-16.84C118.9,64.79,110,54,99.17,43.1S77.48,23.37,68.81,17.87C60.36,12.5,54.11,10.26,52,12.45s.09,8.45,5.45,16.84a173,173,0,0,0,18,22.82l-1.35.7A176.28,176.28,0,0,1,56.16,30.13c-5.73-9-7.93-16-5.22-18.7s9.66-.51,18.7,5.22c8.82,5.6,19.74,14.51,30.65,25.43Z"/><path class="cls-1" d="M97.54,44.83C85,32.33,73,24.12,70.62,26.5c-.93.93-.23,3.31,1.68,6.67l1.87.56c-1.31-2.48-1.73-4.25-1-5C75.34,26.59,86.11,34,97.26,45.11a111.34,111.34,0,0,1,13.57,16l1.22.6A129.18,129.18,0,0,0,97.54,44.83ZM73,34.33c.28.42.56.89.84,1.31l1.68.42c-.28-.47-.56-.89-.79-1.31Zm3.36,4.85c2,2.71,4.53,5.69,7.33,8.77l.84-.42a104.69,104.69,0,0,1-6.68-8.11ZM94.6,58.87c10.31,9.33,19.27,14.93,21.27,12.92a1.88,1.88,0,0,0,.24-.33l-2.43-2.28h0c-1.77,1.77-9.61-3-18.61-11.2Zm19.31,8.49L116,69a20.91,20.91,0,0,0-2-4.2l-1.49-.89a12.25,12.25,0,0,1,1.44,3.5Z"/><path class="cls-1" d="M98.33,44c13.58,13.57,22.11,27,19.08,30-2.56,2.56-12.59-3.18-23.79-13.2l.37-.75c10.41,9.23,19.64,14.51,22,12.13,2.85-2.85-5.13-15.4-17.82-28S73,23.6,70.16,26.4c-.8.8-.75,2.29,0,4.34l-1.82-1.12c-.79-2.19-.84-3.82,0-4.66,3-3,16.42,5.55,30,19.08ZM81.63,49C79,46,76.69,43.2,74.68,40.54l1.31.28c1.82,2.47,4,5.08,6.39,7.79ZM74,37.92l-1.58-.7c-.84-1.25-1.59-2.47-2.2-3.59l1.68.89c.61,1.07,1.31,2.24,2.1,3.4Z"/><path class="cls-1" d="M97.87,44.5C108.41,55,115,65.45,112.65,67.83c-1.91,1.91-9.33-2.2-17.77-9.61l3.55-7.09-1.54-5-3.73-2-3.83.88-5.08,2.57c-7.47-8.49-11.71-16-9.75-17.92C76.92,27.34,87.37,34,97.87,44.5Z"/><polygon class="cls-1" points="60.88 28.41 62.69 30.18 58.03 34.85 56.21 33.07 60.88 28.41"/><rect class="cls-2" x="53.66" y="34.95" width="2.43" height="2.57" transform="translate(-9.55 49.41) rotate(-45)"/><rect class="cls-2" x="115.84" y="87.4" width="5.13" height="2.57" transform="translate(-28.01 109.83) rotate(-45.05)"/><rect class="cls-2" x="112.51" y="92.05" width="2.43" height="2.57" transform="translate(-32.7 107.6) rotate(-44.94)"/><polygon class="cls-1" points="106.96 98.29 108.78 100.11 111.49 97.35 109.72 95.58 106.96 98.29"/><rect class="cls-2" x="100.15" y="84.39" width="5.22" height="3.45" transform="translate(-30.79 97.88) rotate(-45)"/><rect class="cls-2" x="98.1" y="75.11" width="3.31" height="3.45" transform="translate(-25.11 93.04) rotate(-45)"/><rect class="cls-2" x="100.97" y="71.71" width="4.29" height="3.45" transform="translate(-21.73 94.43) rotate(-45)"/><rect class="cls-2" x="48.64" y="23.23" width="7.28" height="3.45" transform="translate(-2.33 44.27) rotate(-45)"/><rect class="cls-2" x="46.41" y="28.44" width="1.35" height="3.45" transform="translate(-7.54 42.13) rotate(-45)"/><rect class="cls-2" x="40.12" y="33.44" width="3.97" height="3.45" transform="translate(-12.53 40.07) rotate(-45)"/><rect class="cls-2" x="72.4" y="35.96" width="4.62" height="2.57" transform="translate(-4.45 63.74) rotate(-45)"/><rect class="cls-2" x="70.52" y="38.99" width="2.24" height="2.57" transform="translate(-7.5 62.45) rotate(-45)"/><rect class="cls-2" x="61.99" y="39.94" width="2.43" height="2.57" transform="translate(-10.65 56.69) rotate(-44.94)"/><rect class="cls-2" x="118.45" y="91.02" width="8.96" height="2.57" transform="translate(-29.24 114.1) rotate(-45.05)"/><polygon class="cls-1" points="115.55 97.87 117.36 99.64 119.14 97.91 117.32 96.09 115.55 97.87"/><path class="cls-2" d="M107.48,127.53a2.06,2.06,0,0,1,2.24,3.46,67.66,67.66,0,0,1-9.52,5.13A71,71,0,0,1,90,139.76a2.06,2.06,0,0,1-1.07-4,63.77,63.77,0,0,0,9.56-3.45,69.14,69.14,0,0,0,9-4.81Zm-26.27,9.89a2.05,2.05,0,1,1,.61,4.06c-1.12.19-2.33.33-3.59.47s-2.43.23-3.64.28a2.06,2.06,0,0,1-.19-4.11c1.17,0,2.29-.14,3.41-.23s2.24-.28,3.4-.47ZM66.57,138a2.06,2.06,0,0,1-.28,4.11,70.6,70.6,0,0,1-40.73-16.38l3.55-2.38A66.73,66.73,0,0,0,66.57,138ZM24.58,125c-.74-.65-1.44-1.31-2.14-2L26,120.72c.19.14.37.33.56.47Zm-5.13-5-.32-.32c-.52-.52-1-1.08-1.45-1.59l4-1.72Zm-2.8-3.12A70.81,70.81,0,0,1,0,71.14a69.31,69.31,0,0,1,.42-7.61C.7,61,1.12,58.45,1.63,56a2,2,0,0,1,4,.84,62.29,62.29,0,0,0-1.12,7c-.23,2.33-.37,4.71-.37,7.18a66.94,66.94,0,0,0,14.79,42ZM8,48.61a2.05,2.05,0,1,1-3.87-1.36c.33-1,.75-2,1.21-3.07s.89-2,1.36-3a2,2,0,1,1,3.68,1.73c-.42.93-.84,1.91-1.26,2.89-.37.79-.74,1.77-1.12,2.85Zm8.87-16.84a2,2,0,0,1-3.32-2.38,71.18,71.18,0,0,1,123,70A71.89,71.89,0,0,1,120,123a2,2,0,1,1-2.79-3,67,67,0,0,0,21.08-48.79A67.06,67.06,0,0,0,40.86,11.48a65.47,65.47,0,0,0-24,20.29Z"/><path class="cls-2" d="M29.29,94.74l-3.77,3.78a3.57,3.57,0,0,0-1.31,2.66,3.62,3.62,0,0,0,1.21,2.24l6.86,6.85h0l6.86,6.86a3.54,3.54,0,0,0,2.24,1.21A3.55,3.55,0,0,0,44,117l3.87-3.87.84,1.58L45.2,118.3a5.15,5.15,0,0,1-4,1.82,5.16,5.16,0,0,1-3.31-1.73L31,111.53h0l-6.86-6.85a5.34,5.34,0,0,1-1.72-3.31,5.13,5.13,0,0,1,1.82-4l3.4-3.4Z"/><rect class="cls-2" x="24.58" y="101.68" width="5.97" height="1.73" transform="translate(-64.46 49.57) rotate(-45.02)"/><polygon class="cls-2" points="27.94 107.15 32.19 102.95 33.4 104.16 29.16 108.41 27.94 107.15"/><rect class="cls-2" x="30.78" y="107.91" width="5.97" height="1.73" transform="translate(-67 55.69) rotate(-44.98)"/><rect class="cls-2" x="33.91" y="111.01" width="5.97" height="1.73" transform="translate(-68.3 58.86) rotate(-45)"/><rect class="cls-2" x="36.98" y="114.12" width="5.97" height="1.73" transform="translate(-69.6 61.94) rotate(-45)"/><polygon class="cls-2" points="27.2 96.79 45.72 115.31 47.91 113.17 48.79 114.75 46.37 117.18 45.72 117.78 45.11 117.18 25.38 97.4 24.77 96.79 25.38 96.19 27.71 93.9 29.3 94.74 27.2 96.79"/><path class="cls-2" d="M25.42,90.78a25.9,25.9,0,0,0,8.35,5.59c.42.19.84.33,1.26.52a21.37,21.37,0,0,0,1.22,2.19A24.56,24.56,0,0,1,33.12,98a28.64,28.64,0,0,1-8.91-6A27.78,27.78,0,0,1,63.49,52.76l.18.19.19.18-.79,1.45a16.19,16.19,0,0,0-8,.32A15.85,15.85,0,0,0,48.19,59a14,14,0,0,0-1.87,2.24l-.79-.79a1.25,1.25,0,0,0-.52-.33,18.21,18.21,0,0,1,2-2.33,18,18,0,0,1,7.61-4.53,17.4,17.4,0,0,1,6.16-.7,26.08,26.08,0,0,0-16.84-6.2,26,26,0,0,0-26,26,25.44,25.44,0,0,0,7.51,18.43Z"/><path class="cls-2" d="M33.35,92.18a25.19,25.19,0,0,1-4.24-6.91l1.3-1.3a23.28,23.28,0,0,0,2.38,4.66c.14,1.17.33,2.38.56,3.55ZM45,60.13a17.43,17.43,0,0,1,2-2.33,18.26,18.26,0,0,1,6.67-4.25,17.82,17.82,0,0,1,6.25-1A24,24,0,0,0,47.77,52,23.49,23.49,0,0,0,35.92,58.5a24,24,0,0,0-7,16L27.2,76.22v-.79A25.67,25.67,0,0,1,62,51.41l.28.14c.18.18.42.37.65.6l.61.61.18.18c0,.1.14.14.19.19l-.79,1.45h-.14c-.19,0,0,0-.14,0H61.34a17,17,0,0,0-7.14.84,16.34,16.34,0,0,0-6.06,3.83,14.46,14.46,0,0,0-1.87,2.23l-.79-.79a1.11,1.11,0,0,0-.51-.51Z"/><path class="cls-2" d="M51.73,117.13a25.83,25.83,0,0,1-5.6-8.35c-.18-.42-.32-.84-.46-1.26a18.7,18.7,0,0,1-2.19-1.21,25.11,25.11,0,0,0,1.07,3.13,28.43,28.43,0,0,0,6,8.9A27.77,27.77,0,0,0,89.8,79.07l-.19-.19-.19-.19-1.44.8a16.15,16.15,0,0,1-.33,8,15.9,15.9,0,0,1-4.1,6.86,13.91,13.91,0,0,1-2.24,1.86l.79.8a1.22,1.22,0,0,1,.33.51A17.89,17.89,0,0,0,89.28,88a17.23,17.23,0,0,0,.7-6.16A26,26,0,0,1,70.2,124.64a25.47,25.47,0,0,1-18.47-7.51Z"/><path class="cls-2" d="M50.38,109.16a25.63,25.63,0,0,0,6.9,4.24l1.31-1.31a23.59,23.59,0,0,1-4.67-2.37,24.33,24.33,0,0,1-3.54-.56ZM82.43,97.59a18.92,18.92,0,0,0,2.33-2A18.19,18.19,0,0,0,89,89a17.86,17.86,0,0,0,1-6.25,24.13,24.13,0,0,1,.51,12.08,23.54,23.54,0,0,1-6.48,11.85,24,24,0,0,1-16,7l-1.73,1.73h.8a25.69,25.69,0,0,0,24-34.75L91,80.33c-.19-.19-.37-.42-.61-.66a6.65,6.65,0,0,0-.6-.6l-.19-.19-.19-.19-1.44.8v0h0v.1c0,.18,0,0,0,.14h0v.09h0V80h0v0h0v0h0v.09h0v.09h0v.1h0v.09h0v.09h0v0h0V81h0v.14h0a16.64,16.64,0,0,1-.84,7.13,16.39,16.39,0,0,1-3.82,6.07,13.91,13.91,0,0,1-2.24,1.86l.79.8a1.36,1.36,0,0,1,.52.56Z"/><rect class="cls-2" x="34.03" y="99.1" width="2.8" height="1.07" transform="translate(-60.08 54.24) rotate(-45)"/><rect class="cls-2" x="34.95" y="100.05" width="2.8" height="0.89" transform="translate(-60.41 55.13) rotate(-45)"/><rect class="cls-2" x="36.16" y="101.27" width="2.8" height="0.89" transform="translate(-60.92 56.35) rotate(-45)"/><rect class="cls-2" x="40.96" y="106.09" width="2.8" height="0.89" transform="translate(-62.92 61.15) rotate(-45)"/><path class="cls-2" d="M97.91,45.85a6.89,6.89,0,0,1,1.26,2.85,6.73,6.73,0,0,1-.46,4A218.47,218.47,0,0,1,87.32,74.5a84.46,84.46,0,0,1-9,12.5,20.45,20.45,0,0,0-.14-2.47,91.12,91.12,0,0,0,7.7-11A212.64,212.64,0,0,0,97.12,51.92,4.88,4.88,0,0,0,97.45,49a5,5,0,0,0-1.36-2.61h0A5,5,0,0,0,93.48,45a5.3,5.3,0,0,0-2.94.33A214.68,214.68,0,0,0,68.9,56.63a90.18,90.18,0,0,0-11,7.7,20.62,20.62,0,0,0-2.48-.14,89,89,0,0,1,12.51-9A202.61,202.61,0,0,1,89.8,43.76a6.35,6.35,0,0,1,4-.47,6.87,6.87,0,0,1,2.85,1.26l0,0,.61.61h0l.65.74Z"/><path class="cls-2" d="M79.58,59.62a.17.17,0,0,1,0-.1,1.09,1.09,0,0,0-.79-.32,1.63,1.63,0,0,0-.93.32s0,0-.1.1l-4.94,4.94a1.42,1.42,0,0,0-.42,1,1.33,1.33,0,0,0,.42,1L76,69.74a1.42,1.42,0,0,0,1,.42,1.35,1.35,0,0,0,1-.42l4.94-4.95a1.42,1.42,0,0,0,.42-1,1.29,1.29,0,0,0-.42-1L81.26,61.2l-1.63-1.63Zm1.17-1.31.14.14,1.58,1.63,1.64,1.63A3.17,3.17,0,0,1,85,64a3.32,3.32,0,0,1-.93,2.24l-5,5a3.17,3.17,0,0,1-2.24.93,3.26,3.26,0,0,1-2.24-.93l-3.22-3.22a3.17,3.17,0,0,1-.93-2.24,3.26,3.26,0,0,1,.93-2.24l5-4.94.23-.24a3.28,3.28,0,0,1,2-.74,2.7,2.7,0,0,1,2.1.79Z"/><path class="cls-2" d="M90.26,52.29c-.56-.56-1.72-.42-3.08,0s-5.87,2.1-4.57,3.41l.33.32.23.24a12.44,12.44,0,0,1,.89.88l.7.7.7.7.88.89.24.23.32.33c1.31,1.3,3-3.22,3.41-4.57s.47-2.57,0-3.13Zm-3.59-1.63c1.91-.61,3.73-.65,4.81.42s1,2.89.42,4.8a17,17,0,0,1-3.41,5.88c-1,1-1.91.33-2.8-.61l-.32-.32-.24-.23a12.47,12.47,0,0,0-.88-.89l-.7-.7-.7-.7a12.33,12.33,0,0,1-.89-.89l-.23-.23c-.19-.19-.33-.28-.33-.33-.93-.93-1.59-1.82-.61-2.8a16.25,16.25,0,0,1,5.88-3.4Z"/><path class="cls-1" d="M40.72,101.83l.75-.74h0A19.89,19.89,0,0,0,69.6,73h0l.74-.75h0a20.94,20.94,0,0,1-29.62,29.62Z"/><path class="cls-1" d="M70.34,72.21h0a20.94,20.94,0,0,0-29.62,29.62h0l.75-.74h0A19.89,19.89,0,0,1,69.6,73h0Z"/><path class="cls-1" d="M67,75.52h0a16.52,16.52,0,0,0-8.3-4.43l-.14.79a15.28,15.28,0,0,1,7.88,4.25h0A15.47,15.47,0,0,1,44.6,98h0a15.49,15.49,0,0,1-4.48-12.32l-.8-.18a16.13,16.13,0,0,0,4.72,13h0a16.26,16.26,0,0,0,23-23Z"/><path class="cls-1" d="M64.33,92.13l-.61-.28a8.81,8.81,0,0,1-1.45,1.86,9.44,9.44,0,0,1-13.43,0h0a9.46,9.46,0,0,1,0-13.43A9.28,9.28,0,0,1,52.9,77.9l-.14-.65a10.12,10.12,0,0,0-4.39,16.93h0a10.16,10.16,0,0,0,14.37,0,11.11,11.11,0,0,0,1.59-2.05Z"/><path class="cls-2" d="M63,79.58h0A10.49,10.49,0,1,0,48.14,94.41h0A10.49,10.49,0,1,0,63,79.58Zm1.22-1.21h0l.6.6,0,0A12.24,12.24,0,0,1,47.49,96.28l-.05,0-.61-.61h0l-.6-.61,0,0A12.24,12.24,0,0,1,63.53,77.81l0,0Z"/><path class="cls-2" d="M71,71.56h0a21.58,21.58,0,0,0-15.49-6.39,22.67,22.67,0,0,0-7.65,1.35l.51-.51a1.75,1.75,0,0,0,.47-1.64,24.67,24.67,0,0,1,6.62-.93,23.61,23.61,0,0,1,16.1,6.3h0l.6.6h0l.61.61h0A23.61,23.61,0,0,1,79.07,87a24.36,24.36,0,0,1-.94,6.63,1.8,1.8,0,0,0-1.63.46l-.51.52A21.57,21.57,0,0,0,77.34,87,21.18,21.18,0,0,0,71,71.56ZM60.64,110.09a23.63,23.63,0,0,1-21.18-5.74h0l-.6-.61h0l-.61-.6h0A23.63,23.63,0,0,1,32.51,82L35,79.44a21.57,21.57,0,0,0-1.35,7.65,22,22,0,0,0,6.39,15.49h0A21.79,21.79,0,0,0,55.56,109a23,23,0,0,0,7.65-1.35Z"/><path class="cls-2" d="M79.67,93.48l3,3a2.57,2.57,0,0,1,.75,1.86,2.66,2.66,0,0,1-.75,1.87L61,121.84a2.56,2.56,0,0,1-1.87.75,2.65,2.65,0,0,1-1.87-.75l-3-3a2.56,2.56,0,0,1-.75-1.87,2.61,2.61,0,0,1,.75-1.86L75.94,93.48a2.65,2.65,0,0,1,1.87-.79,2.83,2.83,0,0,1,1.86.79Zm1.78,4.25-3-3a.91.91,0,0,0-.65-.28.88.88,0,0,0-.65.28L55.51,116.39a.89.89,0,0,0,0,1.3l3,3a.89.89,0,0,0,1.3,0L81.45,99a.94.94,0,0,0,.28-.65.8.8,0,0,0-.28-.65Z"/><rect class="cls-2" x="58.62" y="114.28" width="1.49" height="1.26" transform="translate(-63.86 75.64) rotate(-45)"/><rect class="cls-2" x="54.96" y="116.79" width="3.92" height="1.26" transform="translate(-66.35 74.64) rotate(-45)"/><path class="cls-2" d="M58.92,111.86l5.41,5.41a1,1,0,0,1,.28.66h0a1,1,0,0,1-.28.65L60.88,122a2.27,2.27,0,0,1-1.64.7,2.18,2.18,0,0,1-1.63-.7l-3.41-3.41a2.27,2.27,0,0,1-.7-1.63,2.22,2.22,0,0,1,.7-1.63l3.46-3.5a.85.85,0,0,1,1.26,0Zm3.59,6.07-4.25-4.25-2.89,2.89a.57.57,0,0,0-.19.42.51.51,0,0,0,.19.42l3.41,3.41a.56.56,0,0,0,.42.18.51.51,0,0,0,.42-.18Z"/><path class="cls-2" d="M77.39,97.77,75,100.15,73.8,98.94l2.38-2.38Zm-3.5,3.5-1,1-1.21-1.21,1-1Zm-1.49,1.49-9.33,9.33-1.22-1.21,9.33-9.33Z"/><path class="cls-2" d="M64.79,115.08l2.71-2.71-.37-.37-2.76,2.66Zm3.92-3.92L69.88,110l-.38-.37-1.16,1.12Zm1.68-1.72,10.5-10.5-.38-.37L70,109.06Z"/><path class="cls-1" d="M90.12,53c-.09-.28-.51.13-.42.41a3,3,0,0,1,0,1.45c0,.23.32.28.37,0A3.85,3.85,0,0,0,90.12,53Zm-.6,2.61a9.65,9.65,0,0,1-1.4,3c-.33.42.28.47.46.1a12.88,12.88,0,0,0,1.26-3c0-.18-.28-.28-.32,0Z"/><path class="cls-1" d="M81.59,62.13l.84.84a1.41,1.41,0,0,1,0,2l-.28.28c-.28.28-.61-.05-.33-.33A1.28,1.28,0,0,0,82,63.11l-.65-.65c-.19-.14.14-.47.28-.33Zm-.47,4.11L78.6,68.76a1.7,1.7,0,0,1-1.35.28,1.5,1.5,0,0,0,.79-.42l2.75-2.75c.28-.28.61.09.33.37Z"/><path class="cls-1" d="M60.88,81.68h0a7.15,7.15,0,0,0-.94-.79l-.14.32c.28.24.56.47.84.75h0a7.22,7.22,0,0,1,.84,9.14l.33.19a7.64,7.64,0,0,0-.93-9.61Zm-1.36-1.07a7.08,7.08,0,0,0-.84-.47l-.14.33a8.72,8.72,0,0,1,.84.46Zm-1.58-.75a8,8,0,0,0-1.5-.33l.05.38a6.13,6.13,0,0,1,1.31.28ZM60.5,92.22a6.69,6.69,0,0,1-2.24,1.45l.05.37a7.37,7.37,0,0,0,2.47-1.58Z"/><polygon class="cls-1" points="56.68 82.85 54.76 84.48 62.23 88.21 61.2 88.82 57.24 86.81 55.09 88.72 57.66 89.98 56.63 90.59 54.25 89.42 51.73 91.57 50.57 91.29 53.32 88.91 52.24 88.4 53.27 87.79 54.11 88.21 56.3 86.34 53.97 85.18 50.99 87.74 50.01 87.28 52.99 84.71 52.01 84.2 53.04 83.59 53.83 84.01 55.74 82.33 54.48 81.73 55.51 81.12 61.62 84.2 60.59 84.81 56.68 82.85"/><path class="cls-1" d="M65.82,97.82h0A10.85,10.85,0,0,0,67,96.47l-1.44-.89c-.24.28-.52.56-.8.84a13.31,13.31,0,0,1-18.8,0h0a13.33,13.33,0,0,1,0-18.8,13.77,13.77,0,0,1,7.56-3.78l0-1.68a15,15,0,0,0-8.44,4.06h0a15,15,0,1,0,20.76,21.6Z"/><path class="cls-1" d="M96.75,47.77a7,7,0,0,1-.19,4.15A203.42,203.42,0,0,1,86.34,71.18c-.32.56-1.25.19-1-.28A180.92,180.92,0,0,0,95.72,51.45a7.67,7.67,0,0,0,.14-2.75c.51-.51.37-.42.89-.93ZM85,73.38c-.56.93-1.16,1.86-1.77,2.75-1.12,1.68-2,1.12-1.17,0s1.31-2.1,2-3.17c.33-.52,1.07,0,.93.42Z"/><path class="cls-1" d="M27.34,99.69l.74.74c.05,0,.05.1,0,.14l-2.33,2.33a.08.08,0,0,1-.14,0l-.37-.37a.58.58,0,0,1,0-.84l2-2c0-.09.09-.09.14,0Z"/><polygon class="cls-1" points="30.83 103.18 31.25 103.6 28.78 106.08 28.36 105.66 30.83 103.18"/><polygon class="cls-1" points="33.96 106.31 34.38 106.73 31.91 109.2 31.49 108.73 33.96 106.31"/><rect class="cls-2" x="34.3" y="110.55" width="3.45" height="0.61" transform="translate(-68.04 58.36) rotate(-45.23)"/><polygon class="cls-1" points="40.16 112.51 40.58 112.93 38.11 115.41 37.69 114.99 40.16 112.51"/><path class="cls-1" d="M44.08,116.48l-.74-.75a.1.1,0,0,0-.14,0l-1.12,1.12c0,.05,0,.1,0,.14l.37.38a.6.6,0,0,0,.84,0l.75-.75c.09-.05.09-.14,0-.14Z"/><rect class="cls-2" x="33.29" y="96.6" width="0.7" height="11.2" transform="translate(-62.41 53.72) rotate(-45)"/><rect class="cls-2" x="39.49" y="106.64" width="0.7" height="3.55" transform="translate(-64.99 59.93) rotate(-45)"/><rect class="cls-2" x="43.2" y="111.03" width="0.7" height="2.24" transform="translate(-66.54 63.65) rotate(-45)"/><path class="cls-2" d="M28.22,114.43a.9.9,0,0,1,0-1.22.88.88,0,0,1,1.21,0l1.73,1.73A.86.86,0,1,1,30,116.15Zm3.87,3.87a.86.86,0,1,1,1.22-1.21L36.25,120a.9.9,0,0,1,0,1.22,1,1,0,0,1-.28.18l-12.55,5.79a.94.94,0,0,1-1.17-.42.79.79,0,0,1,.05-.79h0l2.1-3.41L14,129.68a.85.85,0,0,1-1.21-.23.82.82,0,0,1,0-1l7.09-10.31-3.41,2.1a.83.83,0,0,1-1.16-.28.78.78,0,0,1,0-.84l5.78-12.6a.9.9,0,0,1,1.17-.42.48.48,0,0,1,.23.19h0l2.43,2.43a.86.86,0,0,1,0,1.21.88.88,0,0,1-1.21,0l-1.59-1.59L18,117.27l4.43-2.75h0a.75.75,0,0,1,.93,0,.89.89,0,0,1,.23,1.21l-6.81,9.89,9.85-6.77a.77.77,0,0,1,1,0A.84.84,0,0,1,27.9,120l-2.76,4.44,8.91-4.11Z"/><path class="cls-2" d="M46,59.85l3,3a2.6,2.6,0,0,1,.74,1.87A2.68,2.68,0,0,1,49,66.57L27.38,88.21a2.69,2.69,0,0,1-3.73,0l-3-3a2.6,2.6,0,0,1-.74-1.87,2.68,2.68,0,0,1,.74-1.87L42.31,59.85a2.69,2.69,0,0,1,3.73,0Zm1.77,4.24-3-3a.91.91,0,0,0-1.31,0l-21.6,21.6a.89.89,0,0,0,0,1.3l3,3a.91.91,0,0,0,1.31,0L47.86,65.35a.9.9,0,0,0,.28-.65,1,1,0,0,0-.33-.61Z"/><rect class="cls-2" x="24.99" y="80.64" width="1.49" height="1.26" transform="translate(-49.93 42) rotate(-45)"/><rect class="cls-2" x="21.33" y="83.14" width="3.92" height="1.26" transform="translate(-52.41 41) rotate(-45)"/><path class="cls-2" d="M25.28,78.23l5.41,5.41a.91.91,0,0,1,.28.65h0a.92.92,0,0,1-.28.66L27.24,88.4a2.27,2.27,0,0,1-1.63.7A2.2,2.2,0,0,1,24,88.4L20.57,85a2.27,2.27,0,0,1-.7-1.63,2.2,2.2,0,0,1,.7-1.63l3.5-3.46a1,1,0,0,1,.65-.28.66.66,0,0,1,.56.24Zm3.59,6.06-4.24-4.24-2.89,2.89a.57.57,0,0,0-.19.42.51.51,0,0,0,.19.42l3.4,3.4a.57.57,0,0,0,.42.19.51.51,0,0,0,.42-.19Z"/><path class="cls-2" d="M43.76,64.14l-2.43,2.38-1.21-1.21,2.38-2.43Zm-3.5,3.5-1,1L38,67.45l1-1Zm-1.5,1.49-9.33,9.33-1.21-1.21,9.33-9.33Z"/><path class="cls-2" d="M31.16,81.45l2.71-2.71-.38-.37-2.7,2.7Zm3.92-3.92,1.12-1.17L35.83,76l-1.17,1.17Zm1.68-1.73L47.25,65.31l-.37-.38L36.39,75.43Z"/></g></g></g></g></svg>