<svg xmlns="http://www.w3.org/2000/svg" viewBox="0 0 53.12 52.32"><defs><style>.cls-1{fill:#fff;}</style></defs><g id="Calque_2" data-name="Calque 2"><g id="Footer"><g id="Content"><g id="Logo"><path class="cls-1" d="M26.56,0a26.56,26.56,0,0,0-6.44,52.32,3.66,3.66,0,0,1-.2-1.26V46.54H16.6a4.52,4.52,0,0,1-4.18-2.26c-.87-1.59-1-4.05-3.19-5.58-.67-.53-.13-1.06.6-1a7,7,0,0,1,3.58,2.72c1.06,1.39,1.53,1.73,3.52,1.73a27,27,0,0,0,3.72-.27,8.25,8.25,0,0,1,3.52-4.32C15.27,36.51,11,32.13,11,26.15A11,11,0,0,1,14,19c-.6-2.06-1.4-6.31.27-8a9.41,9.41,0,0,1,7,3.26,20.27,20.27,0,0,1,6.44-1.07,20,20,0,0,1,6.44,1.07,9.37,9.37,0,0,1,7-3.26c1.59,1.6.86,5.91.19,8a10.71,10.71,0,0,1,2.93,7.17c0,6-4.19,10.36-13,11.29,2.45,1.26,4.18,4.85,4.18,7.5V51c0,.2-.07.4-.07.6A26.53,26.53,0,0,0,26.56,0Z"/></g></g></g></g></svg>