<svg xmlns="http://www.w3.org/2000/svg" viewBox="0 0 52.32 52.32"><defs><style>.cls-1{fill:#fff;}</style></defs><g id="Calque_2" data-name="Calque 2"><g id="Footer"><g id="Content"><g id="Logo"><path class="cls-1" d="M26.16,0A26.16,26.16,0,1,0,52.32,26.16,26.16,26.16,0,0,0,26.16,0Zm-7,38.81H13.44V20.25h5.74Zm-2.9-21a3.43,3.43,0,1,1,3.4-3.42A3.41,3.41,0,0,1,16.28,17.82Zm24.42,21H35V29.07c0-2.68-1-4.17-3.13-4.17-2.3,0-3.5,1.56-3.5,4.17v9.74H22.85V20.25h5.51v2.5A6.48,6.48,0,0,1,34,19.68c3.94,0,6.75,2.41,6.75,7.38V38.81Z"/></g></g></g></g></svg>