<svg xmlns="http://www.w3.org/2000/svg" viewBox="0 0 512 126.13"><defs><style>.cls-1{fill:#fff;}</style></defs><g id="Calque_2" data-name="Calque 2"><g id="svg8"><g id="layer1"><path id="path29" class="cls-1" d="M67,126.13c-40.15,0-67-28.46-67-62.95H0C0,28.69,26.88-.09,66.9,0H445.09C485.12-.09,512,28.69,512,63.18h0c0,34.49-26.82,62.94-67,63Zm.12-110.61C35.31,15.58,15.8,36.82,15.8,63.1h0c0,26.27,19.39,47.69,51.29,47.57H444.91c31.9.11,51.3-21.3,51.3-47.57h0c0-26.27-19.51-47.52-51.29-47.58ZM465.23,37.7q4.33,0,4.33,2.91a2.71,2.71,0,0,1-2.21,2.69l2.26,4.52h-2.74l-1.93-4.15h-1.21v4.15h-2.47V37.7Zm-.22-4a9.14,9.14,0,1,0,9.14,9.14A9.14,9.14,0,0,0,465,33.74Zm7.39,9.14A7.39,7.39,0,1,1,465,35.49,7.39,7.39,0,0,1,472.4,42.88Zm-8.67-.69h1.21c1.4,0,2.08-.43,2.08-1.43s-.72-1.51-2.21-1.51h-1.08ZM257.2,66.93c0-3.46,0-5.77,1.18-7.74a7.3,7.3,0,0,1,6.28-3.61h0a7.31,7.31,0,0,1,6.28,3.61c1.13,2,1.18,4.29,1.15,7.75ZM272,78.84s0,.17,0,2.39c0,7.22-4.76,8.83-7.39,8.83s-7.48-1.61-7.48-8.83c0-2.16,0-8.15,0-8.15s33.63,0,33.63,0c0-12.24-11.82-22.39-26.34-22.39s-26.3,9.93-26.3,22.17S250,95,264.49,95c12,0,22.22-6.87,25.33-16.2Zm56.19-27.5c6.67-.19,20.22,4.18,20.12,19.81,0,2.78,0,21.49,0,21.49H330.59V66.71c0-3.44-3.29-7.27-8.15-7.27S314,63.27,314,66.71c0,1.68,0,25.93,0,25.93H296.25l0-39.48,17.71,0s0,3.18,0,4.16a21.52,21.52,0,0,1,14.24-6Zm-145.12,0c6.68-.19,20.23,4.18,20.13,19.81,0,2.78,0,21.49,0,21.49H185.48V66.71c0-3.44-3.29-7.27-8.15-7.27s-8.48,3.83-8.48,7.27c0,1.68,0,25.93,0,25.93H151.14V53.16l17.74,0s0,3.18,0,4.16a21.49,21.49,0,0,1,14.23-6ZM386.83,33.28h17.62V92.65H386.8s0-1.91,0-2.28a21.45,21.45,0,0,1-20.55,1.48A21.06,21.06,0,0,1,354,72.28c0-10.43,9.83-21.81,22.7-20.68a23.86,23.86,0,0,1,10.11,3.52c0-9.14,0-21.84,0-21.84ZM387,72.71V65.65c0-6.1-4.21-7.66-7-7.66s-7,1.56-7,7.66c0,2,0,7,0,7s0,4.92,0,7c0,6.09,4.16,7.69,7,7.69s7-1.6,7-7.69c0-2.54,0-7,0-7Zm56.58-.11s0,6,0,8.36c0,6.3-3.72,8.89-7.29,8.89s-7.32-2.59-7.32-8.89c0-2.39,0-8.51,0-8.51s0-5.84,0-8.24c0-6.27,3.74-8.84,7.3-8.84s7.29,2.57,7.29,8.84c0,2.4,0,6.82,0,8.41Zm-7.17-22.13c-14.42,0-26.1,9.93-26.1,22.17S422,94.82,436.36,94.82s26.09-9.93,26.09-22.18S450.77,50.47,436.36,50.47Zm-313-5.07V33.26H141.3V45.4Zm0,47.25V53.16H141.3V92.65Zm89.58,0V53.25h-9.71V47.38H213v-8H230.9v8h9.67v5.88H230.9v39.4Zm-162.25,0V33.28h18.5l25.59,41.4V33.28h18.36V92.65H94.9L69.17,51.25v41.4Z"/></g></g></g></svg>