<svg xmlns="http://www.w3.org/2000/svg" viewBox="0 0 156.3 120.54"><defs><style>.cls-1{fill:#fff;}</style></defs><g id="Calque_2" data-name="Calque 2"><g id="Our_services" data-name="Our services"><g id="Content"><g id="Our_skills" data-name="Our skills"><path class="cls-1" d="M83.91,120.54l-.75-.21L59,112.68c-.38-.12-.62-.28-.55-.72a2.36,2.36,0,0,0,0-.46V0c1,.21,2,.39,3,.6,9.12,2,18.08,4.56,27,7.35A99.42,99.42,0,0,1,104.21,14a36.92,36.92,0,0,1,10.19,7.34,26.64,26.64,0,0,1,6.7,12.89,50.38,50.38,0,0,1,.32,21.52,19.78,19.78,0,0,1-4.69,9.49c-3.52,3.82-8,5.16-13,4.74a27.73,27.73,0,0,1-9-2.52,1,1,0,0,1-.65-1q0-18.31,0-36.63a18.81,18.81,0,0,0-.63-5.53,6.16,6.16,0,0,0-4.58-4.53,3.19,3.19,0,0,0-3.59,1.27A7.68,7.68,0,0,0,84,25.12c0,.63,0,1.27,0,1.91v93.51Z"/><path class="cls-1" d="M88.75,94.65v-.71c0-4.63,0-9.25,0-13.88a.78.78,0,0,1,.63-.88,96.33,96.33,0,0,1,17.19-4,77.15,77.15,0,0,1,16-.62A75.74,75.74,0,0,1,144.38,79c2.09.78,4.16,1.62,6.18,2.55a12.16,12.16,0,0,1,4.15,3.18,5.6,5.6,0,0,1-.09,7.9,19.53,19.53,0,0,1-7,4.8c-3.34,1.44-6.75,2.7-10.16,3.94q-23.1,8.33-46.23,16.6l-2.44.87c0-.3,0-.52,0-.75,0-4.43,0-8.86,0-13.28a.79.79,0,0,1,.63-.89q19.95-7.08,39.89-14.21a18.46,18.46,0,0,0,3.08-1.46c.73-.42,1.46-1,1.34-2s-.93-1.34-1.69-1.67a16.23,16.23,0,0,0-6.13-1,34.4,34.4,0,0,0-12.3,2.38c-8,2.88-15.93,5.63-23.9,8.44Z"/><path class="cls-1" d="M53.51,68.05v.76c0,4.42,0,8.85,0,13.28a.82.82,0,0,1-.65.93Q40.18,87.54,27.52,92.1a13.94,13.94,0,0,0-3.3,1.7c-1.47,1-1.31,2.32.29,3.17a11.93,11.93,0,0,0,4.76,1.14,30.38,30.38,0,0,0,13.27-2c3.42-1.3,6.87-2.5,10.31-3.75.18-.07.36-.11.61-.18v13.17c-1.64.26-3.28.54-4.92.76a81.14,81.14,0,0,1-12.27.68,84.59,84.59,0,0,1-24.39-4.15A25.36,25.36,0,0,1,4,99a14.12,14.12,0,0,1-2.81-2.81,5.51,5.51,0,0,1,.68-7.47A22.24,22.24,0,0,1,7.56,85a100.7,100.7,0,0,1,13.27-5.33q16-5.67,32-11.37Z"/><path class="cls-1" d="M146.83,120.35a5.94,5.94,0,1,1,5.93-5.93A5.91,5.91,0,0,1,146.83,120.35Zm4.94-5.86a5,5,0,1,0-5.05,4.9A5,5,0,0,0,151.77,114.49Z"/><path class="cls-1" d="M144.34,111c1.23,0,2.41,0,3.58,0a1.6,1.6,0,0,1,1.53,1.06,1.91,1.91,0,0,1-.57,2.23c1.11.83.12,2.24,1,3.13l-.1.13a5.64,5.64,0,0,1-1,0,.63.63,0,0,1-.36-.43,14,14,0,0,1-.12-1.44.73.73,0,0,0-.77-.79c-2.14-.22-2.14-.23-2.14,1.9v.75h-1.07Zm1.1,2.83c.81,0,1.55,0,2.28,0,.48,0,.71-.37.71-.86s-.13-.85-.58-.89c-.79-.07-1.59,0-2.41,0Z"/></g></g></g></g></svg>