<svg xmlns="http://www.w3.org/2000/svg" viewBox="0 0 120.31 120.35"><defs><style>.cls-1{fill:#fff;}</style></defs><g id="Calque_2" data-name="Calque 2"><g id="Our_services" data-name="Our services"><g id="Content"><g id="Our_skills" data-name="Our skills"><path class="cls-1" d="M70.26,60.06q.09-29.41.18-58.84c0-1.3-.19-1.15,1.11-1.15,6.65,0,13.3-.07,20,0A27.5,27.5,0,0,1,106,4.65a30.53,30.53,0,0,1,14,20.83,22,22,0,0,1,.27,4.22q0,29.82,0,59.65a27.41,27.41,0,0,1-.72,7.77c-3.39,11.42-10.75,18.92-22.24,22.24a30.06,30.06,0,0,1-8.5.94c-5.83,0-11.66,0-17.49,0-.59,0-.81-.18-.82-.77,0-3.15-.18-6.29-.18-9.44q0-25,0-50Zm35.83,6.14a12.05,12.05,0,1,0-12,12.06A12.07,12.07,0,0,0,106.09,66.2Z"/><path class="cls-1" d="M58.28,60.07q0,24.78,0,49.57c0,3.15-.11,6.29-.18,9.44,0,1-.15,1.18-1.21,1.2-3.7,0-7.4.08-11.09.07-5.26,0-10.52-.16-15.78-.15-7.16,0-13.32-2.64-18.75-7A30.43,30.43,0,0,1,.49,94.57a25.34,25.34,0,0,1-.28-4.45Q.09,70.26,0,50.38q0-8.81.1-17.61a35.52,35.52,0,0,1,1-9.8C4.85,10.5,13.18,3,25.87.35A15.34,15.34,0,0,1,29.05.11Q41.89,0,54.73,0c.87,0,1.75.07,2.62.11.52,0,.76.26.77.83,0,5,.14,10.06.15,15.09q0,22,0,44Zm-10,50.57V9.71l-.21,0c-6,.05-12,.08-18,.16a19.18,19.18,0,0,0-3.63.37,19.76,19.76,0,0,0-10.61,5.92c-3.57,3.79-5.78,8.18-5.79,13.56,0,9.74-.19,19.48-.19,29.22,0,10.61.15,21.23.22,31.85a17.3,17.3,0,0,0,.92,5.66c3.16,9.13,11.91,14.11,19.13,14.06,3.58,0,7.16.12,10.74.16C43.38,110.67,45.82,110.64,48.31,110.64Z"/><path class="cls-1" d="M29.81,47.3c-5.36.28-11.25-5.16-10.89-11.75a11.32,11.32,0,0,1,11.4-10.86A11.52,11.52,0,0,1,41.5,36.49C41.36,43.12,35.15,47.83,29.81,47.3Z"/></g></g></g></g></svg>