<svg xmlns="http://www.w3.org/2000/svg" viewBox="0 0 52.32 52.32"><defs><style>.cls-1{fill:#fff;}</style></defs><g id="Calque_2" data-name="Calque 2"><g id="Footer"><g id="Content"><g id="Logo"><path class="cls-1" d="M26.16,0A26.16,26.16,0,1,0,52.32,26.16,26.16,26.16,0,0,0,26.16,0ZM39.49,19.32c0,.3,0,.59,0,.89,0,9.09-6.92,19.58-19.58,19.58A19.47,19.47,0,0,1,9.39,36.7a14.59,14.59,0,0,0,1.64.1,13.82,13.82,0,0,0,8.54-2.95,6.89,6.89,0,0,1-6.42-4.78A7,7,0,0,0,16.26,29a6.88,6.88,0,0,1-5.52-6.75v-.08a6.91,6.91,0,0,0,3.11.86,6.9,6.9,0,0,1-2.13-9.19A19.58,19.58,0,0,0,25.91,21a6.81,6.81,0,0,1-.18-1.57,6.88,6.88,0,0,1,11.9-4.71A13.79,13.79,0,0,0,42,13a6.93,6.93,0,0,1-3,3.81,13.76,13.76,0,0,0,4-1.09A13.74,13.74,0,0,1,39.49,19.32Z"/></g></g></g></g></svg>