<?xml version="1.0" encoding="UTF-8" standalone="no"?>
<!DOCTYPE svg PUBLIC "-//W3C//DTD SVG 1.1//EN" "http://www.w3.org/Graphics/SVG/1.1/DTD/svg11.dtd">
<svg width="100%" height="100%" viewBox="0 0 53 53" version="1.1" xmlns="http://www.w3.org/2000/svg" xmlns:xlink="http://www.w3.org/1999/xlink" xml:space="preserve" xmlns:serif="http://www.serif.com/" style="fill-rule:evenodd;clip-rule:evenodd;stroke-linejoin:round;stroke-miterlimit:2;">
    <g id="Calque_2">
        <path d="M26.16,0C40.598,0 52.32,11.722 52.32,26.16C52.32,40.598 40.598,52.32 26.16,52.32C11.722,52.32 0,40.598 0,26.16C0,11.722 11.722,0 26.16,0ZM29.006,23.872L40.132,11.206L37.496,11.206L27.831,22.201L20.118,11.206L11.219,11.206L22.886,27.834L11.219,41.114L13.854,41.114L24.054,29.5L32.202,41.114L41.101,41.114L29.006,23.872ZM14.806,13.153L18.855,13.153L37.494,39.263L33.444,39.263L14.806,13.153Z" style="fill:white;"/>
    </g>
</svg>
