<svg id="svg2985" xmlns="http://www.w3.org/2000/svg" viewBox="0 0 278.36 278.86">
  <defs>
    <style>
      .cls-1 {
        fill: #fff;
      }
    </style>
  </defs>
  <path id="path4148" class="cls-1" d="M125.32,278.28a138.53,138.53,0,0,1-61.8-21.95c-15.64-10.22-19.17-14.4-19.17-22.79,0-16.82,18.48-46.3,50.07-79.86,18-19.08,43-41.43,45.64-40.85,5.27,1.18,47.29,42.24,63,61.53C228,205,239.43,230,233.61,241.12c-4.43,8.49-31.83,25.05-52,31.4C165.05,277.79,143.25,280,125.32,278.28ZM23.26,216.07c-13-19.94-19.54-39.6-22.73-68-1-9.38-.68-14.74,2.39-34,3.8-24,17.43-51.74,33.84-68.83,7-7.28,7.62-7.47,16.13-4.59,10.35,3.5,21.37,11.12,38.49,26.63l10,9-5.45,6.72c-25.36,31.15-52.09,75.3-62.15,102.61-5.48,14.84-7.68,29.76-5.33,36C30,225.8,28.59,224.25,23.26,216.07Zm227.91,3.38c1.26-6.26-.35-17.78-4.15-29.39-8.21-25.14-35.74-72-61-103.76l-7.95-10,8.6-7.92C197.9,58,205.71,51.83,214.13,46.6c6.66-4.15,16.13-7.8,20.22-7.8,2.51,0,11.37,9.19,18.52,19.26a145.76,145.76,0,0,1,23.35,54.06c2.66,12.7,2.88,39.85.43,52.49a166.76,166.76,0,0,1-10.44,33c-3.12,6.84-10.86,20.12-14.27,24.46-1.73,2.17-1.73,2.17-.77-2.63ZM127.61,34C115.94,28.08,98,21.73,88,20a73.54,73.54,0,0,0-13.22-.74c-8.21.4-7.84,0,5.32-6.23a135.13,135.13,0,0,1,32.45-10.8c13.94-2.95,40.1-3,53.82-.07,14.8,3.13,32.24,9.63,42.05,15.67l2.91,1.8-6.68-.34c-13.32-.68-32.7,4.7-53.54,14.86-6.29,3.07-11.74,5.51-12.14,5.42S133.47,37,127.61,34Z"/>
</svg>
