<svg xmlns="http://www.w3.org/2000/svg" viewBox="0 0 82.31 96.34"><defs><style>.cls-1{fill:#bbc814;fill-rule:evenodd;}</style></defs><g id="Calque_2" data-name="Calque 2"><g id="Layer_1" data-name="Layer 1"><path class="cls-1" d="M41.16,5.93a30.32,30.32,0,0,1,11,2L57,.4a.87.87,0,1,1,1.46,1L53.74,8.64C61.57,12.25,66.9,19.12,67.05,27H15.26c.15-7.91,5.48-14.78,13.31-18.39L23.84,1.35A.88.88,0,1,1,25.31.4L30.2,7.94a30.55,30.55,0,0,1,11-2ZM36.44,77.6V90.53a5.83,5.83,0,0,1-5.82,5.81h0a5.83,5.83,0,0,1-5.82-5.81V77.6H19.93a4.72,4.72,0,0,1-4.71-4.71V30.52H67.09V72.89a4.72,4.72,0,0,1-4.7,4.71H57.51V90.53a5.83,5.83,0,0,1-5.82,5.81h0a5.82,5.82,0,0,1-5.81-5.81V77.6ZM5.82,30.72h0a5.84,5.84,0,0,1,5.81,5.82V59.8a5.83,5.83,0,0,1-5.81,5.81h0A5.83,5.83,0,0,1,0,59.8V36.54a5.84,5.84,0,0,1,5.82-5.82Zm70.68,0h0a5.83,5.83,0,0,1,5.81,5.82V59.8a5.82,5.82,0,0,1-5.81,5.81h0a5.83,5.83,0,0,1-5.82-5.81V36.54a5.84,5.84,0,0,1,5.82-5.82ZM30,13.81a3,3,0,1,1-3,3,3,3,0,0,1,3-3Zm22.39,0a3,3,0,1,1-3,3,3,3,0,0,1,3-3Z"/></g></g></svg>