<svg xmlns="http://www.w3.org/2000/svg" viewBox="0 0 104.49 128.18"><defs><style>.cls-1{fill:#fff;fill-rule:evenodd;}</style></defs><g id="Calque_2" data-name="Calque 2"><g id="Portrait"><g id="Logos_-_copie_2" data-name="Logos - copie 2"><path class="cls-1" d="M57.65,11.15A27.43,27.43,0,0,1,77.78,0s1.75,10.44-6.62,20.49c-8.93,10.73-19.09,9-19.09,9S50.17,21,57.65,11.15Z"/><path class="cls-1" d="M53.14,36.78c4.34,0,12.38-6,22.84-6,18,0,25.11,12.82,25.11,12.82A27.84,27.84,0,0,0,87.23,67.93c0,19.4,17.26,26.08,17.26,26.08s-12.07,34-28.37,34c-7.49,0-13.31-5-21.2-5s-16,5.24-21.22,5.24C18.81,128.18,0,96,0,70,0,44.55,15.92,31.18,30.85,31.18,40.56,31.18,48.1,36.78,53.14,36.78Z"/></g></g></g></svg>