<svg xmlns="http://www.w3.org/2000/svg" viewBox="0 0 917.08 1031.78"><defs><style>.cls-1{fill:#fff;}.cls-2{fill:#004482;}.cls-3{fill:#00589b;}.cls-4{fill:#6499d1;}.cls-5{fill:#014482;}</style></defs><g id="Calque_2" data-name="Calque 2"><g id="Calque_1-2" data-name="Calque 1"><rect class="cls-1" x="66.01" y="188.78" width="831.01" height="654.52" rx="292.54"/><path class="cls-2" d="M446.59,1031.78c-2.15-.62-4.35-1.11-6.45-1.87-7.75-2.84-16.05-4.75-23.12-8.81Q229.22,913.22,41.69,804.85A76.53,76.53,0,0,1,12,774c.7-.45,1.38-.93,2.1-1.35q79.32-45.75,158.61-91.52c6.86-4,13.5-8.29,20.24-12.45a30.81,30.81,0,0,1,2.77,3.41c72.09,118.08,205.41,173.71,339,139.6,82.27-21,145-69.42,188.49-142.58,6.06,3.35,12.18,6.6,18.18,10.05q31.25,17.92,62.42,36,30.33,17.51,60.65,35c13.59,7.89,27.11,15.9,40.67,23.85a76.37,76.37,0,0,1-29.68,30.82q-187.6,108.18-375.29,216.22c-7.06,4.06-15.35,6-23.11,8.8-2.41.86-5,1.27-7.47,1.89Z"/><path class="cls-3" d="M905.12,774.05c-13.56-7.95-27.08-16-40.67-23.85q-30.29-17.58-60.65-35-31.2-18-62.42-36c-6-3.45-12.12-6.7-18.18-10.05-.4-.29-.78-.63-1.2-.88q-63.94-37-127.92-73.91a19.11,19.11,0,0,0-3.65-1.23,40.47,40.47,0,0,0-4.56-3.67c-10-5.86-20.07-11.62-30.13-17.41-20.83-12-41.69-23.89-62.48-35.93-11.31-6.55-22.5-13.3-33.74-20,1.08-.77,2.1-1.63,3.23-2.29q43.86-25.29,87.72-50.56c13.36-7.73,26.62-15.65,39.92-23.48a45.41,45.41,0,0,0,4.5-2q62.29-36,124.54-72a29.92,29.92,0,0,0,4.05-3.37,20.09,20.09,0,0,0,4.15-1.31c8.8-5,17.55-10.08,26.31-15.14q67.68-39.06,135.35-78.14c5.26-3.05,10.26-6.53,15.39-9.81,6.15,8.69,9.28,18.57,11.43,28.85a18.27,18.27,0,0,0,1,2.61V744.06c-.4,1-.79,2-1.2,3Q910.51,760.57,905.12,774.05Zm-47.26-207V533.23h33.62v-34H857.55V465.69h-34v33.64H790v34.21h33.8v33.51Zm-93.8-67.84H730.14V465.66H696.06v33.79H662.61v33.91h33.87v33.52h34.09V533.1h33.49Z"/><path class="cls-4" d="M904.68,258c-5.13,3.28-10.13,6.76-15.39,9.81Q821.66,307,753.94,346c-8.76,5.06-17.51,10.15-26.31,15.14a20.09,20.09,0,0,1-4.15,1.31,37.22,37.22,0,0,1-3-3.78c-17.66-29.16-39.3-55-65.8-76.42-75.59-61.18-161.51-83.67-256.95-65.12C326.59,230.94,267.64,267.05,222,323.32,168.49,389.2,146.26,464.93,154.8,549.5c4,39.89,16.17,77.27,35.11,112.53,1.16,2.15,2.05,4.45,3.06,6.68-6.74,4.16-13.38,8.49-20.24,12.45Q93.47,727,14.12,772.68c-.72.42-1.4.9-2.1,1.35C4.52,761.91.11,748.82.1,734.49c0-145.33-.3-290.67.21-436,.11-30,14.17-54.52,40-69.63,91.71-53.7,184-106.41,276.07-159.51,33.43-19.27,66.6-39,100.33-57.73,27.63-15.34,56.38-15.63,83.81,0,88.41,50.45,176.43,101.57,264.6,152.43C802.41,185.59,839.79,207,877,228.68A70.41,70.41,0,0,1,904.68,258Z"/><path class="cls-4" d="M326.53,592.24c-9.13-14-14.64-29.48-17.65-45.72-9.72-52.41,3.79-98.42,40.58-136.82,26.16-27.3,58.75-42.47,96.67-45.41,45.33-3.51,84.47,11,117.75,41.49,10.67,9.79,19.91,21,26.51,34-13.3,7.83-26.56,15.75-39.92,23.48q-43.83,25.35-87.72,50.56c-1.13.66-2.15,1.52-3.23,2.29a23.49,23.49,0,0,0-2.73,1.15Q426.4,534.82,396,552.38,361.3,572.35,326.53,592.24Z"/><path class="cls-5" d="M326.53,592.24q34.74-19.93,69.49-39.86,30.41-17.5,60.77-35.08a23.49,23.49,0,0,1,2.73-1.15c11.24,6.66,22.43,13.41,33.74,20,20.79,12,41.65,24,62.48,35.93,10.06,5.79,20.12,11.55,30.13,17.41a40.47,40.47,0,0,1,4.56,3.67c-22.22,37.59-54.82,61.48-97,71.69-63.78,15.45-130.63-12.67-164.93-68.6C327.73,595,327.18,593.57,326.53,592.24Z"/></g></g></svg>