<svg xmlns="http://www.w3.org/2000/svg" viewBox="0 0 1990.66 1990.66"><defs><style>.cls-1,.cls-2,.cls-3,.cls-4,.cls-5{fill:#fff;}.cls-1{opacity:0.2;}.cls-2{opacity:0.15;}.cls-3{opacity:0.1;}.cls-4{opacity:0.05;}.cls-5{opacity:0.01;}</style></defs><g id="Calque_2" data-name="Calque 2"><g id="Calque_126" data-name="Calque 126"><g id="BG"><g id="Space_milk_-_copie" data-name="Space milk - copie"><path class="cls-1" d="M1421.23,391.92c147.33-.64,340.21-19.76,569.43-93.39V0H0V399.41a2516.62,2516.62,0,0,1,557.23-78.92C937.72,309.87,1105.06,393.29,1421.23,391.92Z"/><path class="cls-2" d="M1421.23,391.92c-316.17,1.37-483.51-82.05-864-71.43A2516.62,2516.62,0,0,0,0,399.41V766.78C262.64,883.37,476,903.73,621.86,901c376.26-7,551.72-172,1004.6-247.18a2392.17,2392.17,0,0,1,364.2-32V298.53C1761.44,372.16,1568.56,391.28,1421.23,391.92Z"/><path class="cls-3" d="M200.06,1259.32c265.65-19,456-109,508-131.52,195.86-85.06,557.11-138,1282.63-.41V621.87a2392.17,2392.17,0,0,0-364.2,32C1173.58,729,998.12,894,621.86,901,476,903.73,262.64,883.37,0,766.78v492.61A1417.23,1417.23,0,0,0,200.06,1259.32Z"/><path class="cls-4" d="M1569.77,1570c183.61-50.77,325-137,420.89-208.2V1127.39c-725.52-137.56-1086.77-84.65-1282.63.41-51.95,22.56-242.32,112.55-508,131.52A1417.23,1417.23,0,0,1,0,1259.39v442c301.37-96.4,547.14-118.17,717.1-120.08C1065.63,1577.41,1262.33,1655,1569.77,1570Z"/><path class="cls-5" d="M1569.77,1570c-307.44,85-504.14,7.41-852.67,11.34-170,1.91-415.73,23.68-717.1,120.08v289.24H1990.66V1361.8C1894.74,1433.05,1753.38,1519.23,1569.77,1570Z"/></g></g></g></g></svg>