<svg xmlns="http://www.w3.org/2000/svg" viewBox="0 0 1809.35 505.18"><g id="Calque_2" data-name="Calque 2"><g id="Portail"><g id="Portal_1_Green" data-name="Portal 1 Green"><g id="Top"><g id="Top_Gate" data-name="Top Gate"><path d="M1809.35,252.59c0,47.64-60.89,84-144.45,121.79C1615,397,1558.32,434.13,1486,451.2c-57.9,13.65-125.39,7.61-194.56,16.86-61,8.16-124.09,32.36-191.8,36.52-62.58,3.85-128.17-12.11-194.92-12.11s-132.33,16-194.91,12.11C642,500.42,579,476.22,518,468.06c-69.17-9.25-136.66-3.21-194.57-16.87C251,434.13,194.32,397,144.44,374.38,60.89,336.55,0,300.23,0,252.59s60.89-84,144.45-121.8C194.32,108.21,251,71.05,323.4,54,381.3,40.33,448.79,46.36,518,37.12,579,29,642,4.76,709.76.6c62.58-3.85,128.17,12.11,194.91,12.11S1037-3.25,1099.59.6c67.71,4.16,130.8,28.36,191.8,36.52C1360.56,46.36,1428.05,40.33,1486,54c72.36,17.07,129.07,54.23,179,76.82C1748.46,168.63,1809.35,205,1809.35,252.59Z"/></g></g></g></g></g></svg>