<?xml version="1.0" encoding="utf-8"?>
<!-- Generator: Adobe Illustrator 25.2.1, SVG Export Plug-In . SVG Version: 6.00 Build 0)  -->
<svg version="1.1" xmlns="http://www.w3.org/2000/svg" xmlns:xlink="http://www.w3.org/1999/xlink" x="0px" y="0px"
	 viewBox="0 0 1440 768" style="enable-background:new 0 0 1440 768;" xml:space="preserve">
<style type="text/css">
	.st0{display:none;fill:url(#SVGID_1_);}
	.st1{opacity:5.000000e-02;}
	.st2{fill:#FFFFFF;}
	.st3{opacity:0.1;fill:#FFFFFF;}
	.st4{fill:url(#SVGID_2_);}
	.st5{opacity:2.000000e-02;}
	.st6{opacity:0.1;}
	.st7{display:none;opacity:0.1;}
	.st8{display:inline;fill:#FFFFFF;}
	.st9{display:inline;}
	.st10{opacity:0.5;fill:#FFFFFF;}
	.st11{opacity:0.5;}
	.st12{display:inline;fill:none;stroke:#FFFFFF;stroke-width:5;stroke-miterlimit:10;}
	.st13{fill:none;}
	.st14{opacity:0.1;fill:#FFFFFF;enable-background:new    ;}
	.st15{opacity:2.000000e-02;fill:#FFFFFF;}
	.st16{fill:url(#SVGID_3_);}
	.st17{fill:#F3B110;}
	.st18{display:none;opacity:5.000000e-02;}
	.st19{display:none;}
	.st20{display:inline;fill:url(#SVGID_4_);}
	.st21{display:inline;opacity:5.000000e-02;}
	.st22{fill:#1E9CD7;}
	.st23{display:inline;opacity:0.1;fill:#FFFFFF;}
	.st24{display:inline;opacity:0.75;fill:#FFFFFF;}
	.st25{display:inline;opacity:0.5;fill:#FFFFFF;}
	.st26{fill-rule:evenodd;clip-rule:evenodd;fill:#F3B110;}
</style>
<g id="BG_-_copie">
	<linearGradient id="SVGID_1_" gradientUnits="userSpaceOnUse" x1="1271.9995" y1="936" x2="167.9995" y2="-168">
		<stop  offset="0" style="stop-color:#60B6E2"/>
		<stop  offset="0.1163" style="stop-color:#4DAFDF"/>
		<stop  offset="0.344" style="stop-color:#1E9CD7"/>
		<stop  offset="0.6732" style="stop-color:#0075BE"/>
		<stop  offset="0.9944" style="stop-color:#005B97"/>
	</linearGradient>
	<rect x="0" class="st0" width="1440" height="768"/>
	<g class="st1">
		<path class="st2" d="M0,768h975.5c162-54.9,314.6-124.3,453.2-206.1c3.8-2.2,7.6-4.5,11.4-6.8V0h-79c-12.4,6.6-24.5,13.6-36,20.9
			c-92.7,58.4-160.4,134.2-232.1,206.3C957.8,362.8,795.6,493.4,581.1,556c-120,35-252.6,46.9-380.3,34c-67-6.7-137.1-19.9-200.8-4
			V768z"/>
	</g>
	<g id="Stars_-_copie">
		<ellipse class="st3" cx="979.6" cy="61.1" rx="3.3" ry="3.3"/>
		<ellipse class="st3" cx="1018.7" cy="78.1" rx="2.1" ry="2.1"/>
		
			<ellipse transform="matrix(0.7071 -0.7071 0.7071 0.7071 196.6847 708.5654)" class="st3" cx="953.7" cy="116.9" rx="5.1" ry="5.1"/>
		<ellipse class="st3" cx="1339.8" cy="466.4" rx="3.3" ry="3.3"/>
		
			<ellipse transform="matrix(0.7071 -0.7071 0.7071 0.7071 15.623 1081.9758)" class="st3" cx="1313.9" cy="522.1" rx="5.1" ry="5.1"/>
		
			<ellipse transform="matrix(0.7071 -0.7071 0.7071 0.7071 53.7019 316.7097)" class="st3" cx="409.2" cy="93.5" rx="5.1" ry="5.1"/>
		<ellipse transform="matrix(0.7071 -0.7071 0.7071 0.7071 23.413 172.0582)" class="st3" cx="219.4" cy="57.8" rx="5.1" ry="5.1"/>
		<ellipse class="st3" cx="43.9" cy="393" rx="3.3" ry="3.3"/>
		<ellipse class="st3" cx="56.6" cy="315" rx="2.1" ry="2.1"/>
		
			<ellipse transform="matrix(0.7071 -0.7071 0.7071 0.7071 -228.0139 152.4931)" class="st3" cx="70.1" cy="351.5" rx="5.1" ry="5.1"/>
		<ellipse class="st3" cx="1200.9" cy="67.8" rx="3.3" ry="3.3"/>
		<ellipse class="st3" cx="1174.1" cy="530.6" rx="3.3" ry="3.3"/>
		<ellipse class="st3" cx="221.5" cy="517.7" rx="2.1" ry="2.1"/>
		<ellipse class="st3" cx="206.7" cy="548.3" rx="1.3" ry="1.3"/>
		
			<ellipse transform="matrix(0.7071 -0.7071 0.7071 0.7071 136.7724 796.5889)" class="st3" cx="1030" cy="233.2" rx="5.1" ry="5.1"/>
		<ellipse transform="matrix(0.7071 -0.7071 0.7071 0.7071 -32.0717 270.618)" class="st3" cx="310.6" cy="174" rx="5.1" ry="5.1"/>
		<ellipse class="st3" cx="341.8" cy="429.2" rx="3.3" ry="3.3"/>
		<ellipse class="st3" cx="958.7" cy="566" rx="3.3" ry="3.3"/>
		<ellipse class="st3" cx="864.4" cy="637.5" rx="3.3" ry="3.3"/>
		<ellipse class="st3" cx="536.3" cy="551.7" rx="2.1" ry="2.1"/>
		
			<ellipse transform="matrix(0.7071 -0.7071 0.7071 0.7071 -237.7788 583.8029)" class="st3" cx="585.8" cy="578.9" rx="5.1" ry="5.1"/>
		
			<ellipse transform="matrix(0.7071 -0.7071 0.7071 0.7071 -307.7832 389.0333)" class="st3" cx="315.7" cy="566" rx="5.1" ry="5.1"/>
		<path class="st3" d="M133,447c-18.3,10.1-34.8,25.8-23.9,30.1c6.1-14.4,42.3-32.1,68.4-37.3c-19.3,4.9-47.4,17.4-52.1,28.3
			c24.4-16.2,58.8-22.3,72.8-17.2c-11.8-2.7-36.9,0.8-55.6,13.1c30.6-10.2,47.7-2.4,42,11.1c1.8-9.1-9-16.2-32.3-8.5
			c22.6,0.4,13.9,18.8-7.6,33.9c14.1-11.2,22.9-25.6,6-26.2c3.9,11.1-25.8,31.3-54.1,41.4c20.6-8.1,44.7-23.3,41.8-31.9
			c-16.1,16.5-53.5,29.4-75.4,29.8c17.5-1.7,45.7-10.4,57.9-22.9c-28.4,14-57.3,14.4-62.2,4.7c3.4,2.7,8.5,4.8,16.6,4.6
			c8.3-0.2,20.6-2.4,31-8.3c-28.4,5.9-33.6-7.7-20.4-22.5c-7.3,10.3-6,21.5,15.7,17.3c-11.1-4.6-1.8-19.1,17.5-31.1
			C126.9,450.3,133,447,133,447z"/>
	</g>
	<g class="st1">
		<path class="st2" d="M485.3,0c-17.7,8-35.7,15.4-53.9,22.2C292,74.7,143.7,93.4,0,83.3v137c38.5,15.9,77.8,30.3,118.7,41.1
			C371.8,328.4,677.1,244.3,875.6,53c17.7-17.1,34.6-34.9,51.3-53H485.3z"/>
	</g>
</g>
<g id="Gametest">
	<g id="BG_1_">
	</g>
	<g id="Calque_10">
	</g>
</g>
<g id="Job">
	<g id="BG" class="st19">
		<g id="Calque_7_-_copie_1_" class="st9">
		</g>
		<g id="Calque_7_1_" class="st9">
		</g>
		<g id="Calque_8_1_" class="st9">
		</g>
		<g id="Stars" class="st9">
		</g>
	</g>
	<g id="Cloud_transition" class="st19">
	</g>
	<g id="Calque_1">
	</g>
</g>
<g id="SOURCES">
</g>
</svg>
