<svg xmlns="http://www.w3.org/2000/svg" viewBox="0 0 1439.76 268.85"><defs><style>.cls-1,.cls-2,.cls-3{fill:#fff;}.cls-1{opacity:0.75;}.cls-2{opacity:0.5;}</style></defs><g id="Calque_2" data-name="Calque 2"><g id="Job"><g id="Cloud_transition_-_copie" data-name="Cloud transition - copie"><circle class="cls-1" cx="330.79" cy="134.86" r="95.81"/><circle class="cls-1" cx="207.05" cy="122.63" r="108.04"/><path class="cls-2" d="M1285.66,268.85a106.81,106.81,0,1,0-161.89,0Z"/><circle class="cls-1" cx="627.79" cy="118.26" r="108.04"/><path class="cls-1" d="M835.55,268.85H984.83a130.55,130.55,0,1,0-149.28,0Z"/><circle class="cls-1" cx="1088.92" cy="145.13" r="70.69"/><path class="cls-1" d="M1439.76,80.15a108,108,0,1,0,0,109.43Z"/><path class="cls-3" d="M1425.55,53.7a107.68,107.68,0,0,0-74,29.27A112.47,112.47,0,0,0,1190.9,161a112.5,112.5,0,0,0-124.6-36.76A92.69,92.69,0,0,0,894.16,109a92.88,92.88,0,0,0-75.27-8.87A100.28,100.28,0,0,0,655.1,62.68,128.18,128.18,0,0,0,446.94,45.54,128.29,128.29,0,0,0,312.57,95.45a64.55,64.55,0,0,0-82.32,11.26,107.56,107.56,0,0,0-55.93-15.58,108.88,108.88,0,0,0-19.06,1.67A134.25,134.25,0,0,0,0,33.81v235H1439.76V54.63A109.29,109.29,0,0,0,1425.55,53.7Z"/></g></g></g></svg>