<svg xmlns="http://www.w3.org/2000/svg" viewBox="0 0 692.75 516.89"><defs><style>.cls-1{fill:none;}</style></defs><g id="Calque_2" data-name="Calque 2"><g id="Assets"><circle cx="463.32" cy="52.77" r="18.95"/><circle cx="181.27" cy="35.58" r="35.57"/><circle cx="346.37" cy="243.64" r="133.4"/><ellipse class="cls-1" cx="346.37" cy="243.64" rx="82.68" ry="289.6" transform="translate(-7.56 476.17) rotate(-68.43)"/><path d="M385.22,145.38c-189.78-75-361.59-92-383-37.82S117.74,266.86,307.52,341.9a1202.65,1202.65,0,0,0,142.71,46.69h0a69.88,69.88,0,0,1,96.07,18.88h0c77.79,9.93,132.71,1.36,144.22-27.75C712,325.54,575,220.42,385.22,145.38ZM615.69,350.13c-16.76,42.39-151.21,29.12-299.72-29.6S60.3,179.55,77.06,137.16,228.27,108,376.78,166.75,632.45,307.73,615.69,350.13Z"/><path d="M546.31,407.47a69.89,69.89,0,1,0,9.3,59.59A69.59,69.59,0,0,0,546.31,407.47Z"/><path d="M317.93,315.59C179,260.64,78.69,183.67,94.37,144s141.49-27.25,280.45,27.7S614.06,303.61,598.37,343.28,456.89,370.53,317.93,315.59Zm50.7-128.25c-108.74-43-207.17-52.71-219.45-21.67S215.38,257,324.12,299.94s207.17,52.71,219.45,21.67S477.37,230.34,368.63,187.34Z"/></g></g></svg>