<svg xmlns="http://www.w3.org/2000/svg" viewBox="0 0 2288.24 1543.5"><defs><style>.cls-1{fill:#fff;}</style></defs><g id="Calque_2" data-name="Calque 2"><g id="Our_services" data-name="Our services"><g id="BG"><g id="Space_milk" data-name="Space milk"><path class="cls-1" d="M2288.24,498.26c-186.34,111.83-337.55,272.56-507.45,408.07a2255.53,2255.53,0,0,1-501.14,302.44c-76.35,33.44-155.41,62.84-238,73.79-160.94,21.32-323.45-28.5-485.61-20.63-203.78,9.88-400.77,116.43-520.57,281.57L0,1343.65a953.2,953.2,0,0,1,158.7-320.89c32.36-42.68,70.41-84.09,120.56-102.87,68.5-25.64,144.27-4.44,216.54,6.82a777.51,777.51,0,0,0,398.32-43c225.22-87.26,396.47-274,539.44-468.72,76-103.44,147.68-212.2,245.38-295.42S1907.36-19.29,2033.13,6.26Z"/></g></g></g></g></svg>