<svg xmlns="http://www.w3.org/2000/svg" viewBox="0 0 2173.64 1028.47"><defs><style>.cls-1{fill:#fff;}</style></defs><g id="Calque_2" data-name="Calque 2"><g id="Our_services" data-name="Our services"><g id="BG"><g id="Space_milk" data-name="Space milk"><path class="cls-1" d="M2173.64,348.64c-100.28-47.75-337.2,62.14-433,134.48s-167,169.39-252.91,252.22C1236.11,977.87,849,1084.48,528.17,999.64c-80.6-21.31-156.48-53.45-231-87.25Q145.61,843.68,0,765.31l11.64-69.1C293,799,624.93,809,924.61,696.34c67.23-25.29,132.7-56.57,193.14-95.76,141.27-91.6,250-222.81,343-358.45,21.24-31,42-62.57,64.88-92.6,20.09-26.39,41.78-51.57,66.78-74,53.44-48.05,126-82.79,194.64-74.16Z"/></g></g></g></g></svg>