<svg xmlns="http://www.w3.org/2000/svg" viewBox="0 0 3001.69 6060.64"><defs><style>.cls-1{fill:#fff;}</style></defs><g id="Calque_2" data-name="Calque 2"><g id="About"><g id="Background"><g id="Sky"><g id="Space_milk" data-name="Space milk"><path class="cls-1" d="M1841.66,0c-352,151.16-548.92,322-664.53,452.8-60.52,68.47-80.89,105.77-140.66,150.45-226.74,169.46-594,126.14-874.55,60.57l103.3-252.2a1105,1105,0,0,0,505.09,46.51c428-60.3,666.6-349.79,706.11-399.34Z"/><path class="cls-1" d="M2.7,1411.2C505.79,1299.1,828,1291.12,1031.55,1305.83c106.53,7.71,149.12,19.35,243.52,12.38,358.11-26.45,788.28-271.1,1101.56-478.6L2131,740.53c-97.33,73.35-299.75,212.54-597.77,328.17-553.58,214.77-982.81,172-1054.66,163.89Z"/><path class="cls-1" d="M0,6060.64C631.74,5956.14,1005.36,5831,1231.77,5733.9c118.51-50.81,161.72-78.94,273.43-111.38,423.77-123.06,1036.21-76.64,1496.49-16.07l-233.77,191.37c-147.32-26.92-447.2-70.73-845.33-53.73-739.54,31.57-1211.31,247-1289.81,283.94Z"/><path class="cls-1" d="M2791.61,2226.32c-219.85,49.85-545.23,87.23-886.22-35.23-296.32-106.42-389.66-256.42-656.6-325.93-197.61-51.45-501.42-61.69-935.77,163.34l-87-403.72c466.29-89.87,793.78-23.17,1009.13,56.92,235.94,87.76,337.45,191.66,589.37,252.38,320.46,77.23,610.6,18.62,806.64-43.57Z"/><path class="cls-1" d="M349,4673.17c203.29-27.49,495.92-87.87,766-238.61,234.67-131,282.21-235.28,499.59-339,160.92-76.8,423.92-157.6,854.21-143.43l-15.45-240c-427.57,66.88-698.46,184.1-868.38,280.79-186.17,105.93-251.29,187.3-457.54,282.57-262.37,121.18-529,161.34-714.31,176.25Z"/><path class="cls-1" d="M2682.89,2508.07c-97.66,18-241.63,47.13-413.6,91.84-393.77,102.38-694.08,81.36-865.39,136.06-402.11,128.41-345.8,128.41-1085.1,282.34l91.84-125.86C758,2628.91,1055.73,2549,1264.43,2525.08c282.52-32.4,467.09,30.28,894.62-13.61a3436.85,3436.85,0,0,0,523.84-95.24Z"/><path class="cls-1" d="M301.05,5069.64c99.23,3.92,245.88,12.23,422.47,32,404.34,45.23,698.58-18.37,875.94,11.37,416.31,69.81,360.57,77.83,1114.26,124.85l-108.83-111.49c-381.33-211.36-687.44-248-897.43-242-284.25,8.18-458,96.52-887.43,114A3435,3435,0,0,1,288,4978.74Z"/><path class="cls-1" d="M2549.57,3395.11a5769.88,5769.88,0,0,0-834.65,142.25c-301.53,74.58-415.7,128.83-599.41,120.52-189.23-8.55-459.8-83.81-780.89-404.17l47.67-65.18c200,81,482.32,168.41,828.09,193.79,587.29,43.11,1051.39-115.27,1299.33-221.82Z"/></g></g></g></g></g></svg>