<svg xmlns="http://www.w3.org/2000/svg" viewBox="0 0 2231.25 1246.45"><defs><style>.cls-1{fill:#fff;}</style></defs><g id="Calque_2" data-name="Calque 2"><g id="Our_services" data-name="Our services"><g id="BG"><g id="Space_milk" data-name="Space milk"><path class="cls-1" d="M94.59,1246.45c191.68-73.66,385.93-95.83,579.26-145,174-44.24,348.13-110.71,516.39-197.17,71.68-36.84,143-77.77,206.63-131.19,123.89-104,209.5-247.41,326.79-359.55C1871.05,272.66,2056.42,185,2231.25,187.7L2145.32,54.94C2059,15.76,1971.46-.65,1868,0c-46.15.3-95.56,5.36-140.89,31.27-61.89,35.37-102.93,101.14-147,159-81.46,106.94-186.49,198.55-301.22,262.72C1073.7,567.8,851.06,590.36,643.75,588.4c-110.15-1-220.28-8-334.38,17.4S73.45,695.15,0,799.13Z"/></g></g></g></g></svg>