<svg xmlns="http://www.w3.org/2000/svg" viewBox="0 0 1920 918.79"><defs><style>.cls-1{fill:#fff;}</style></defs><g id="Calque_2" data-name="Calque 2"><g id="Heander"><g id="BG"><g id="Calque_15" data-name="Calque 15"><path class="cls-1" d="M1920,0V126.72c-142,126.12-313,255-480.82,343.39-236.86,124.82-504.35,199.14-771.7,184.7-135.82-7.33-277.18-36.48-404.28,12-85.43,32.55-155.44,98.06-206.35,174C49,852.43,7,906.67,0,918.79V690.6c25.19-56.32,56.33-111.89,94.06-160.87C185.76,410.67,335,324,483.2,349.15c154.39,26.23,273.71,164.27,429.16,183.19,89.43,10.89,179.2-19.86,258.41-62.8,154.16-83.57,280-213.72,374.8-361.24q33.92-52.77,63-108.3Z"/></g></g></g></g></svg>