<svg xmlns="http://www.w3.org/2000/svg" viewBox="0 0 1919.71 3658.72"><defs><style>.cls-1{fill:#fff;}</style></defs><g id="Calque_2" data-name="Calque 2"><g id="About"><g id="Background"><g id="Sky"><g id="Space_milk" data-name="Space milk"><path class="cls-1" d="M1377.05,0c-352,151.16-548.91,322-664.53,452.8C652,521.27,631.64,558.58,571.87,603.25,421.1,715.93,208.21,734.53,0,715.06V458.43a1103.81,1103.81,0,0,0,305.7-.3c428-60.3,666.6-349.79,706.11-399.34Z"/><path class="cls-1" d="M1919.71,620v273.1c-322.85,184-693.26,353.64-1011.44,383.81-110.54,10.49-160-1.07-284.27-6.37-147.89-6.31-349.84-1.57-624,36.33v-99c125.87,8.43,604.29,24,1217.41-213.28C1563.06,860.82,1801.51,704.75,1919.71,620Z"/><path class="cls-1" d="M1919.71,1950.35v323c-148.87-.63-312-22.27-478.92-82.21-296.32-106.42-389.66-256.42-656.61-325.93C610.42,1819.92,354.55,1806.54,0,1957V1590.62c342-31.25,594,25.42,770.52,91.08,235.94,87.76,337.45,191.66,589.37,252.38C1564.36,1983.36,1756.5,1977.33,1919.71,1950.35Z"/><path class="cls-1" d="M1919.71,2480.78v90.45c-36.68,8.76-75.1,18.3-115,28.68-393.78,102.38-694.08,81.36-865.39,136.06C565.72,2855.27,587.82,2863.73,0,2987.77V2852.68c324.19-232,602-304.92,799.83-327.6,282.51-32.4,467.09,30.28,894.61-13.61C1775.5,2503.15,1850.92,2492.47,1919.71,2480.78Z"/><path class="cls-1" d="M1919.71,3210.92v202.43a5754.93,5754.93,0,0,0-669.39,124c-301.53,74.58-415.7,128.83-599.41,120.52C487.8,3650.51,264.25,3593.58,0,3372.83V3220.36c192.32,70.89,445.06,139.9,745.77,162C1245.27,3419,1655.65,3309.9,1919.71,3210.92Z"/></g></g></g></g></g></svg>