<svg xmlns="http://www.w3.org/2000/svg" viewBox="0 0 338.39 228.42"><defs><style>.cls-1,.cls-2{opacity:0.2;}</style></defs><g id="Calque_2" data-name="Calque 2"><g id="About"><g id="Background"><g id="Space_item" data-name="Space item"><g id="Asteroid"><g id="_02" data-name="02"><path class="cls-1" d="M104.29,41.94C26.62,91.44,5.48,97.29.84,122c-5.16,27.43,15,51.75,18.23,55.6,21.62,26,54.15,29.87,69.33,31.43,66.72,6.87,107.8-36.87,131.3-17,13.27,11.19,4.69,28.92,15.76,34.77C259.6,239.47,344.32,178.44,338.06,114c-3.87-39.74-40.75-64.87-66.9-82.7C251.83,18.09,219.5-3.95,179.72.61,160.54,2.81,155.39,9.38,104.29,41.94Z"/><g id="Calque_90" data-name="Calque 90" class="cls-2"><circle cx="35.22" cy="154.58" r="18.61"/><path d="M282,85.62a35.75,35.75,0,0,0,50.09,6.81c.07-.05.13-.11.21-.16-9.82-22.29-29.95-39-48.43-52.18A35.75,35.75,0,0,0,282,85.62Z"/><circle cx="156.18" cy="99" r="40.44"/><path d="M156.61,200.26a30.32,30.32,0,1,0-59.17,9.36C120.2,210.49,139.81,205.69,156.61,200.26Z"/><circle cx="234.37" cy="164.54" r="12.9"/><circle cx="232.09" cy="41.27" r="12.9"/><path d="M319,168.84a18.61,18.61,0,1,0-19.58,29.25,149.11,149.11,0,0,0,21.7-25.69A18.79,18.79,0,0,0,319,168.84Z"/><circle cx="75.57" cy="79.29" r="11.78"/></g><g id="Calque_89" data-name="Calque 89" class="cls-2"><path d="M41.15,164.86A11.87,11.87,0,0,1,28,145.14a11.38,11.38,0,0,1,1.25-.84A11.87,11.87,0,0,1,42.4,164,12.89,12.89,0,0,1,41.15,164.86Z"/><path d="M323.63,89.84a29,29,0,0,1-38.27-40.36C299.3,59.84,314.65,73.19,323.63,89.84Z"/><path d="M173,128.19a33.71,33.71,0,0,1-37.26-56,35.46,35.46,0,0,1,3.53-2.35,33.71,33.71,0,0,1,37.27,56A34.56,34.56,0,0,1,173,128.19Z"/><path d="M149.37,195.46c-12.61,3.81-28.42,7.5-46.5,7.52A23.62,23.62,0,0,1,112,181.55a24.82,24.82,0,0,1,2.48-1.65A23.59,23.59,0,0,1,145.06,186,23.35,23.35,0,0,1,149.37,195.46Z"/><path d="M237.45,169.88a6.17,6.17,0,0,1-6.81-10.25,6.64,6.64,0,0,1,.65-.43,6.17,6.17,0,0,1,6.81,10.25C237.89,169.6,237.67,169.75,237.45,169.88Z"/><path d="M235.17,46.61a6.17,6.17,0,0,1-6.81-10.25,5.74,5.74,0,0,1,.66-.43,6.17,6.17,0,0,1,6.81,10.25A7.48,7.48,0,0,1,235.17,46.61Z"/><path d="M297.92,190.17a11.88,11.88,0,0,1-.89-19.51,12.89,12.89,0,0,1,1.25-.83,11.89,11.89,0,0,1,14.82,2.4A141.63,141.63,0,0,1,297.92,190.17Z"/><path d="M78.09,83.66a5,5,0,0,1-5.57-8.39,6.18,6.18,0,0,1,.53-.36A5.05,5.05,0,0,1,80.57,80a5,5,0,0,1-1.95,3.33A6.18,6.18,0,0,1,78.09,83.66Z"/></g></g></g></g></g></g></g></svg>