<svg xmlns="http://www.w3.org/2000/svg" viewBox="0 0 391.91 254.8"><defs><style>.cls-1{opacity:0.57;}.cls-2,.cls-3{opacity:0.2;}.cls-4{opacity:0.1;}</style></defs><g id="Calque_2" data-name="Calque 2"><g id="About"><g id="Background"><g id="Space_item" data-name="Space item"><g id="Asteroid"><g id="_01" data-name="01" class="cls-1"><path class="cls-2" d="M378.47,142.67c-23,17.33-55.37-20-99.53-8.69-32.85,8.4-30,32.91-75.14,69.67C186.23,218,124.49,268.3,62.18,251.36,34,243.68-1.46,220.29.05,196.92c2-31.84,70.2-26.16,143.23-84.83,66.37-53.32,59.88-98,108.09-109.64,52.12-12.58,121,24.86,136.51,76.44C393.58,97.85,395.41,129.91,378.47,142.67Z"/><g id="Calque_86" data-name="Calque 86" class="cls-3"><path d="M352.57,48.38a21.17,21.17,0,0,0,9.1-10.88,135.07,135.07,0,0,0-33.73-23.74,21.32,21.32,0,0,0,24.63,34.62Z"/><path d="M276.63.08a92.46,92.46,0,0,0-25.26,2.37C233,6.89,222.52,16.15,213,28.88c.41.83.85,1.65,1.33,2.46A35,35,0,0,0,276.63.08Z"/><circle cx="234.14" cy="157.85" r="6.09"/><circle cx="354.8" cy="102.62" r="15.68"/><circle cx="166.31" cy="121.05" r="9.97"/><path d="M110.6,193.76a38.19,38.19,0,0,0-7.3,60c24.25-3.21,46.81-13.67,64.79-24.53a38.15,38.15,0,0,0-57.49-35.51Z"/><circle cx="255.82" cy="109.02" r="25.3"/><path d="M214.32,194.53a17.94,17.94,0,0,0-28.68,21.25c.27.45.55.87.85,1.29,7.56-5.47,13.49-10.3,17.31-13.42S211.13,197.48,214.32,194.53Z"/><path d="M25.88,183.56a22.9,22.9,0,0,0,39.4-23.34,23.47,23.47,0,0,0-1.88-2.69c-16,6.39-30,11-40.67,15.89A22.75,22.75,0,0,0,25.88,183.56Z"/></g><g id="Calque_85" data-name="Calque 85" class="cls-4"><path d="M328.49,17.62a132.43,132.43,0,0,1,29.37,20.65A17.9,17.9,0,0,1,351,45.64a18.13,18.13,0,0,1-22.46-28Z"/><path d="M235,12.28a61.23,61.23,0,0,1,17.08-6.74,88.82,88.82,0,0,1,22.3-2.34A31.77,31.77,0,0,1,217,29.71c-.11-.17-.21-.34-.31-.52,6-7.76,11.75-13,18.32-16.91Z"/><path d="M232.65,155.35a2.91,2.91,0,1,1-1,4A2.92,2.92,0,0,1,232.65,155.35Z"/><path d="M348.44,91.87A12.49,12.49,0,1,1,344.05,109,12.49,12.49,0,0,1,348.44,91.87Z"/><path d="M162.85,115.2a6.79,6.79,0,1,1-2.38,9.31A6.8,6.8,0,0,1,162.85,115.2Z"/><path d="M112.22,196.5A35,35,0,0,1,165,227.42l-.32.18c-20.86,12.36-41.12,20-60.22,22.82a34.47,34.47,0,0,1-4.5-6A35,35,0,0,1,112.22,196.5Z"/><circle cx="255.82" cy="109.02" r="22.12" transform="translate(-19.85 145.59) rotate(-30.64)"/><path d="M193.56,193.94a14.82,14.82,0,0,1,16,.62c-2.51,2.24-5.11,4.46-7.77,6.62-3.34,2.73-8.18,6.67-14.3,11.21A14.78,14.78,0,0,1,193.56,193.94Z"/><path d="M26.17,175.37c5.75-2.49,12.34-5,19.84-7.77,5.2-1.95,10.56-3.95,16.26-6.2l.27.44a19.71,19.71,0,0,1-33.92,20.1A19.52,19.52,0,0,1,26.17,175.37Z"/></g></g></g></g></g></g></g></svg>