<svg xmlns="http://www.w3.org/2000/svg" xmlns:xlink="http://www.w3.org/1999/xlink" viewBox="0 0 2570.78 2570.78"><defs><style>.cls-1{opacity:0.2;fill:url(#Dégradé_sans_nom_17);}.cls-2{opacity:0.63;fill:url(#Dégradé_sans_nom_13);}.cls-3{fill:url(#Dégradé_sans_nom_427);}.cls-4{fill:#b608ff;}.cls-5{opacity:0.9;}.cls-6{fill:#fff;}</style><radialGradient id="Dégradé_sans_nom_17" cx="1285.39" cy="1285.39" r="1285.39" gradientUnits="userSpaceOnUse"><stop offset="0.43" stop-color="#5ddbd0"/><stop offset="1" stop-color="#5ddb7b" stop-opacity="0"/></radialGradient><radialGradient id="Dégradé_sans_nom_13" cx="1285.39" cy="1285.39" r="1285.39" gradientUnits="userSpaceOnUse"><stop offset="0.74" stop-color="#5ddbd0"/><stop offset="1" stop-color="#5ddb7b" stop-opacity="0"/></radialGradient><radialGradient id="Dégradé_sans_nom_427" cx="1285.39" cy="1294.54" r="985.96" gradientUnits="userSpaceOnUse"><stop offset="0.64" stop-color="#5ddb7b"/><stop offset="1" stop-color="#5ddbd0"/></radialGradient></defs><g id="Calque_2" data-name="Calque 2"><g id="About"><g id="Background"><g id="Space_item" data-name="Space item"><g id="Planete"><g id="P01"><circle id="AT01" class="cls-1" cx="1285.39" cy="1285.39" r="1285.39"/><circle id="AT01-2" data-name="AT01" class="cls-2" cx="1285.39" cy="1285.39" r="1285.39"/><circle id="P01-2" data-name="P01" class="cls-3" cx="1285.39" cy="1294.54" r="985.96"/><g id="Floor"><path class="cls-4" d="M668.81,1482.38h0a34,34,0,0,1-34,34H551a34,34,0,0,0-34,34v206.56a34,34,0,0,0,9.95,24l17.39,17.39a34,34,0,0,1,10,24v60.59a34,34,0,0,0,10,24l62.39,62.4a34,34,0,0,0,24,10h34.86a34,34,0,0,0,34-34V1754.14a34,34,0,0,1,10-24l91-91a34,34,0,0,0,9.94-24v-132.7a34,34,0,0,0-34-34H702.77A34,34,0,0,0,668.81,1482.38Z"/></g><path class="cls-4" d="M304,1193.74l45.35-31.87a30.15,30.15,0,0,1,17.34-5.49h40.52a30.17,30.17,0,0,1,30.17,30.17v55.8a30.16,30.16,0,0,0,30.17,30.16H700.13a30.16,30.16,0,0,1,30.16,30.17h0a30.16,30.16,0,0,1-30.16,30.16h-6.36A30.16,30.16,0,0,0,663.61,1363v3.29a30.17,30.17,0,0,1-30.17,30.17H308c-.57,0-2.19,0-2.75,0A993.72,993.72,0,0,1,304,1193.74Z"/><g id="Calque_66" data-name="Calque 66" class="cls-5"><rect class="cls-6" x="254.72" y="1230.32" width="304.44" height="64.22" rx="32.11"/><rect class="cls-6" x="534.31" y="1369.3" width="303.72" height="64.22" rx="32.11"/><rect class="cls-6" x="498.6" y="1544.65" width="383.41" height="64.22" rx="32.11"/><rect class="cls-6" x="396.55" y="1512.54" width="383.41" height="64.22" rx="32.11"/><rect class="cls-6" x="628.71" y="1480.43" width="383.41" height="64.22" rx="32.11"/><rect class="cls-6" x="322.18" y="1792.35" width="296.89" height="64.22" rx="32.11"/><rect class="cls-6" x="445.3" y="1824.46" width="347.53" height="64.22" rx="32.11"/><rect class="cls-6" x="606.19" y="1691.69" width="347.53" height="64.22" rx="32.11"/></g></g></g></g></g></g></g></svg>