<svg xmlns="http://www.w3.org/2000/svg" viewBox="0 0 185.86 209.02"><defs><style>.cls-1{fill:#1e9cd7;}.cls-2{fill:#fff;opacity:0.5;}</style></defs><g id="Calque_2" data-name="Calque 2"><g id="Job"><g id="BG"><g id="Calque_7" data-name="Calque 7"><path class="cls-1" d="M137.77,119.63a98.47,98.47,0,0,1,34.39-89.92q-2.15-2.43-4.16-5a99.57,99.57,0,0,1-15.35,1.19A98.06,98.06,0,0,1,108.92,15.7,98.11,98.11,0,0,1,44,40.13q-1.37,2.35-2.9,4.61A69.58,69.58,0,0,1,49.2,77.36,69.91,69.91,0,0,1,12.27,139a97.85,97.85,0,0,1,28,6.95c1.24,0,2.48-.08,3.72-.08A98.12,98.12,0,0,1,112.9,174a146,146,0,0,1,24.26-29.56c-.28-3.2-.43-6.44-.43-9.71A111,111,0,0,1,137.77,119.63Z"/><path class="cls-1" d="M136.73,105.34a99,99,0,0,0,1,14.29,110.4,110.4,0,0,1,48.09-76.74,119.3,119.3,0,0,1-13.7-13.18A98.23,98.23,0,0,0,136.73,105.34Z"/><path class="cls-2" d="M136.73,105.34a99,99,0,0,0,1,14.29,110.4,110.4,0,0,1,48.09-76.74,119.3,119.3,0,0,1-13.7-13.18A98.23,98.23,0,0,0,136.73,105.34Z"/><path class="cls-1" d="M49.2,77.36a69.58,69.58,0,0,0-8.07-32.62,75.67,75.67,0,0,1-7.76,9.52A144.43,144.43,0,0,1,0,138.6c.93,0,1.85,0,2.79,0,3.2,0,6.36.16,9.48.46A69.91,69.91,0,0,0,49.2,77.36Z"/><path class="cls-2" d="M49.2,77.36a69.58,69.58,0,0,0-8.07-32.62,75.67,75.67,0,0,1-7.76,9.52A144.43,144.43,0,0,1,0,138.6c.93,0,1.85,0,2.79,0,3.2,0,6.36.16,9.48.46A69.91,69.91,0,0,0,49.2,77.36Z"/><path class="cls-1" d="M40.3,146A98.68,98.68,0,0,1,97.18,209a144.6,144.6,0,0,1,15.72-35A98.12,98.12,0,0,0,44,145.89C42.78,145.89,41.54,145.93,40.3,146Z"/><path class="cls-2" d="M40.3,146A98.68,98.68,0,0,1,97.18,209a144.6,144.6,0,0,1,15.72-35A98.12,98.12,0,0,0,44,145.89C42.78,145.89,41.54,145.93,40.3,146Z"/><path class="cls-1" d="M108.92,15.7A98.43,98.43,0,0,1,86.08,0,110.78,110.78,0,0,1,50,27.35,73.84,73.84,0,0,1,44,40.13,98.11,98.11,0,0,0,108.92,15.7Z"/><path class="cls-2" d="M108.92,15.7A98.43,98.43,0,0,1,86.08,0,110.78,110.78,0,0,1,50,27.35,73.84,73.84,0,0,1,44,40.13,98.11,98.11,0,0,0,108.92,15.7Z"/></g></g></g></g></svg>