<svg xmlns="http://www.w3.org/2000/svg" viewBox="0 0 176.21 200.78"><defs><style>.cls-1{fill:#1e9cd7;}.cls-2{fill:#fff;opacity:0.5;}</style></defs><g id="Calque_2" data-name="Calque 2"><g id="Job"><g id="BG"><g id="Calque_8" data-name="Calque 8"><path class="cls-1" d="M15.26,115.38a78.63,78.63,0,0,1,22.68,15.83,78.36,78.36,0,0,1,22.68,62.71c1.72.1,3.44.25,5.16.44a78.65,78.65,0,0,1,100.45-23.17c.85-1,1.73-2,2.64-3a88.33,88.33,0,0,1-.42-76.25A55.58,55.58,0,0,1,161.5,88a78.56,78.56,0,0,1-90-15.06,77.7,77.7,0,0,1-9.74-11.86A78.24,78.24,0,0,1,12.61,79,116.47,116.47,0,0,1,15.26,115.38Z"/><path class="cls-1" d="M37.94,131.21a78.63,78.63,0,0,0-22.68-15.83A115.4,115.4,0,0,1,0,163.75a87.48,87.48,0,0,1,19,37,94.54,94.54,0,0,1,41.64-6.86A78.36,78.36,0,0,0,37.94,131.21Z"/><path class="cls-2" d="M37.94,131.21a78.63,78.63,0,0,0-22.68-15.83A115.4,115.4,0,0,1,0,163.75a87.48,87.48,0,0,1,19,37,94.54,94.54,0,0,1,41.64-6.86A78.36,78.36,0,0,0,37.94,131.21Z"/><path class="cls-1" d="M71.51,72.94A78.56,78.56,0,0,0,161.5,88a55.58,55.58,0,0,0,6.95,3.92,86.94,86.94,0,0,1,7.76-13.26,116,116,0,0,1-29.37-21.35A115.18,115.18,0,0,1,115.56,0,78.23,78.23,0,0,1,94.79,36.86,78.58,78.58,0,0,1,1.74,50.35,114.93,114.93,0,0,1,12.61,79a78.24,78.24,0,0,0,49.16-17.9A77.7,77.7,0,0,0,71.51,72.94Z"/><path class="cls-2" d="M71.51,72.94A78.56,78.56,0,0,0,161.5,88a55.58,55.58,0,0,0,6.95,3.92,86.94,86.94,0,0,1,7.76-13.26,116,116,0,0,1-29.37-21.35A115.18,115.18,0,0,1,115.56,0,78.23,78.23,0,0,1,94.79,36.86,78.58,78.58,0,0,1,1.74,50.35,114.93,114.93,0,0,1,12.61,79a78.24,78.24,0,0,0,49.16-17.9A77.7,77.7,0,0,0,71.51,72.94Z"/><path class="cls-1" d="M172.5,174.9c-1.32-2.2-2.52-4.45-3.63-6.73-.91,1-1.79,2-2.64,3C168.36,172.32,170.46,173.56,172.5,174.9Z"/><path class="cls-2" d="M172.5,174.9c-1.32-2.2-2.52-4.45-3.63-6.73-.91,1-1.79,2-2.64,3C168.36,172.32,170.46,173.56,172.5,174.9Z"/></g></g></g></g></svg>