<svg xmlns="http://www.w3.org/2000/svg" viewBox="0 0 307.36 273.13"><defs><style>.cls-1{fill:#1e9cd7;}.cls-2{fill:#fff;opacity:0.5;}</style></defs><g id="Calque_2" data-name="Calque 2"><g id="Job"><g id="BG"><g id="Calque_7_-_copie" data-name="Calque 7 - copie"><path class="cls-1" d="M156,195.16c1,0,1.91,0,2.86.05a171.61,171.61,0,0,1,42.93-68.85,152.68,152.68,0,0,1,50.62-89.77q-4-4.43-7.79-9.11a154.08,154.08,0,0,1-20.28,1.34,152.24,152.24,0,0,1-67.94-15.89,152.34,152.34,0,0,1-100.82,38c-1.46,0-2.92,0-4.37-.07a61.73,61.73,0,0,1-20.67,32,109.28,109.28,0,0,1,1.86,20,108.19,108.19,0,0,1-6.87,38.06,226.07,226.07,0,0,1,1.43,25.36A224.28,224.28,0,0,1,0,273.13,151.94,151.94,0,0,1,65.12,249.9,102.71,102.71,0,0,1,156,195.16Z"/><path class="cls-1" d="M201.75,126.36A171,171,0,0,1,307.36,78a184.36,184.36,0,0,1-55-41.36A152.68,152.68,0,0,0,201.75,126.36Z"/><path class="cls-2" d="M201.75,126.36A171,171,0,0,1,307.36,78a184.36,184.36,0,0,1-55-41.36A152.68,152.68,0,0,0,201.75,126.36Z"/><path class="cls-1" d="M151,265c-.49-5.3-.76-10.67-.76-16.11a171.37,171.37,0,0,1,8.58-53.68c-.95,0-1.9-.05-2.86-.05A102.71,102.71,0,0,0,65.12,249.9,153,153,0,0,1,151,265Z"/><path class="cls-2" d="M151,265c-.49-5.3-.76-10.67-.76-16.11a171.37,171.37,0,0,1,8.58-53.68c-.95,0-1.9-.05-2.86-.05A102.71,102.71,0,0,0,65.12,249.9,153,153,0,0,1,151,265Z"/><path class="cls-1" d="M30.5,82.79a62.07,62.07,0,0,1-16,9.47,224.23,224.23,0,0,1,11,48.63,108.19,108.19,0,0,0,6.87-38.06A109.28,109.28,0,0,0,30.5,82.79Z"/><path class="cls-2" d="M30.5,82.79a62.07,62.07,0,0,1-16,9.47,224.23,224.23,0,0,1,11,48.63,108.19,108.19,0,0,0,6.87-38.06A109.28,109.28,0,0,0,30.5,82.79Z"/><path class="cls-1" d="M53.18,32.77c0,.73.06,1.45.06,2.17a61.55,61.55,0,0,1-2.07,15.87c1.45,0,2.91.07,4.37.07A152.34,152.34,0,0,0,156.36,12.93,153.67,153.67,0,0,1,134.94,0,170.65,170.65,0,0,1,53.18,32.77Z"/><path class="cls-2" d="M53.18,32.77c0,.73.06,1.45.06,2.17a61.55,61.55,0,0,1-2.07,15.87c1.45,0,2.91.07,4.37.07A152.34,152.34,0,0,0,156.36,12.93,153.67,153.67,0,0,1,134.94,0,170.65,170.65,0,0,1,53.18,32.77Z"/></g></g></g></g></svg>