<svg xmlns="http://www.w3.org/2000/svg" xmlns:xlink="http://www.w3.org/1999/xlink" viewBox="0 0 669.41 128.15"><defs><style>.cls-1{fill:url(#Dégradé_sans_nom_286);}.cls-2{fill:url(#Dégradé_sans_nom_286-2);}.cls-3{fill:url(#Dégradé_sans_nom_286-3);}.cls-4{opacity:0.9;fill:url(#Dégradé_sans_nom_309);}.cls-5{fill:#00f3ff;}.cls-6{fill:url(#Dégradé_sans_nom_328);}</style><linearGradient id="Dégradé_sans_nom_286" x1="6073.25" y1="-104.27" x2="6855.59" y2="-104.27" gradientTransform="translate(4059.21 -40.2) rotate(180) scale(0.56 1)" gradientUnits="userSpaceOnUse"><stop offset="0" stop-color="#00f3ff"/><stop offset="0.11" stop-color="#00b3ff" stop-opacity="0.91"/><stop offset="0.84" stop-color="#00b3ff" stop-opacity="0"/></linearGradient><linearGradient id="Dégradé_sans_nom_286-2" x1="6073.25" y1="-104.27" x2="7272.58" y2="-104.27" xlink:href="#Dégradé_sans_nom_286"/><linearGradient id="Dégradé_sans_nom_286-3" x1="6148.18" y1="-103.98" x2="6659.39" y2="-103.98" xlink:href="#Dégradé_sans_nom_286"/><linearGradient id="Dégradé_sans_nom_309" x1="6174.7" y1="-103.98" x2="6498.88" y2="-103.98" gradientTransform="translate(4059.21 -40.2) rotate(180) scale(0.56 1)" gradientUnits="userSpaceOnUse"><stop offset="0" stop-color="#00f3ff"/><stop offset="0.53" stop-color="#00f3ff" stop-opacity="0.13"/><stop offset="1" stop-color="#00f3ff" stop-opacity="0"/></linearGradient><radialGradient id="Dégradé_sans_nom_328" cx="4496.57" cy="193.61" r="59.48" gradientTransform="translate(5104.36 257.39) rotate(180)" gradientUnits="userSpaceOnUse"><stop offset="0.82" stop-color="#00f3ff"/><stop offset="0.97" stop-color="#00f3ff" stop-opacity="0.13"/></radialGradient></defs><g id="Calque_2" data-name="Calque 2"><g id="Our_services" data-name="Our services"><g id="BG"><g id="Space_items" data-name="Space items"><g id="Comet"><path class="cls-1" d="M669.41,64.08h0a64.05,64.05,0,0,1-75.07,63.1L232.75,64.08,594.34,1A64.06,64.06,0,0,1,669.41,64.08Z"/><path class="cls-2" d="M669.41,64.08h0a64.05,64.05,0,0,1-75.07,63.1L0,64.08,594.34,1A64.06,64.06,0,0,1,669.41,64.08Z"/><path class="cls-3" d="M627.59,63.78h0c0,28.59-23.45,50.26-49.06,45.34L342.26,63.78,578.53,18.44C604.14,13.52,627.59,35.2,627.59,63.78Z"/><path class="cls-4" d="M612.79,63.78h0c0,29-14.87,50.93-31.11,46L431.84,63.78,581.68,17.84C597.92,12.86,612.79,34.82,612.79,63.78Z"/><circle class="cls-5" cx="607.79" cy="63.78" r="51.27"/><circle class="cls-6" cx="607.79" cy="63.78" r="59.48"/></g></g></g></g></g></svg>