<svg xmlns="http://www.w3.org/2000/svg" viewBox="0 0 454.24 454.23"><defs><style>.cls-1{opacity:0.1;}.cls-2{fill:#6d6d6d;}</style></defs><g id="Calque_2" data-name="Calque 2"><g id="Client"><g id="BG"><g id="Space_items" data-name="Space items"><g id="Far_planet" data-name="Far planet" class="cls-1"><path d="M90.59,408.6c82.86,62.33,194.52,59.37,273.33-.15q-16.12-10.6-31.79-22.37a600,600,0,0,1-226-351.21A226.59,226.59,0,0,0,45.63,90.58C-29.77,190.82-9.64,333.2,90.59,408.6Z"/><path class="cls-2" d="M332.13,386.08q15.64,11.78,31.79,22.37a227.24,227.24,0,0,0,44.69-44.81c75.4-100.23,55.27-242.61-45-318C286.19-12.65,183.56-13.85,106.12,34.87A600,600,0,0,0,332.13,386.08Z"/></g></g></g></g></g></svg>