<svg xmlns="http://www.w3.org/2000/svg" viewBox="0 0 207.67 202.13"><defs><style>.cls-1{fill:#1a3966;}</style></defs><g id="Calque_2" data-name="Calque 2"><g id="Assets"><path class="cls-1" d="M205.46,31.49,193.57,14.68,181.68,31.49a12,12,0,0,0-2.2,6.93v.28h-1.9v5H129.82l-1.57-5.31-1.72.51L118.1,10.64A14.9,14.9,0,0,0,101.84.13,15.2,15.2,0,0,0,89.46,11L81.13,39l-1.83-.55-1.58,5.31H30v-5H28.19v-.28A12,12,0,0,0,26,31.49L14.1,14.68,2.2,31.49A12,12,0,0,0,0,38.42V202.13H28.19V172.26H30v-5h9.87v5h1.89v22.16l30.61-9v-10h3v4l7,6-4,14.71H129.3l-4-14.71,7-6v-4h3v10l30.62,9V172.26h1.76v-5h9.88v5h1.9v29.87h28.19V38.42A12,12,0,0,0,205.46,31.49ZM5.47,33.8,14.1,21.61,22.72,33.8a8.2,8.2,0,0,1,.94,1.81L14.1,51.9,4.53,35.61A8.2,8.2,0,0,1,5.47,33.8ZM4.32,117.69,14.1,101l9.77,16.66L14.1,134.35Zm19.55,41.22L14.1,175.57,4.32,158.91l9.78-16.66ZM4.32,76.46,14.1,59.81l9.77,16.65L14.1,93.12ZM4,42.6l7.78,13.25L4,69.11ZM4,83.82l7.78,13.26L4,110.33Zm0,41.23,7.78,13.25L4,151.55Zm0,41.22,7.78,13.25L4,192.77Zm1.49,31.86,8.61-14.66,8.6,14.66Zm18.7-5.36-7.78-13.25,7.78-13.25Zm0-41.22L16.41,138.3l7.78-13.25Zm0-41.22L16.41,97.08l7.78-13.26Zm0-41.22L16.41,55.85,24.19,42.6ZM75.34,171.73h-3V135h3Zm0-40.43h-3V94.55h3Zm28.49-16.11A15.13,15.13,0,1,1,119,100.06,15.12,15.12,0,0,1,103.83,115.19Zm31.49,56.54h-3V135h3Zm0-40.43h-3V94.55h3Zm42.26,27.08v5.05H167.7v-5.05h-1.76V109.53L135.32,70V90.87h-3V66.45c0-1.36,0-2.72-.15-4.07H75.5c-.1,1.35-.16,2.71-.16,4.07V90.87h-3V70L41.73,109.53v48.85H39.84v5.05H30v-5.05H28.19V52.58H30v-5H76.6l-1.26,4.23,1.85.55a54.91,54.91,0,0,0-1.25,6.07h55.79a55.68,55.68,0,0,0-1.27-6.11l1.74-.51-1.26-4.23h46.64v5h1.9v105.8ZM184.94,33.8l8.63-12.19L202.2,33.8a7.76,7.76,0,0,1,.93,1.81L193.57,51.9,184,35.61A8.61,8.61,0,0,1,184.94,33.8Zm-1.15,83.89L193.57,101l9.78,16.66-9.78,16.66Zm19.56,41.22-9.78,16.66-9.78-16.66,9.78-16.66ZM183.79,76.46l9.78-16.65,9.78,16.65-9.78,16.66Zm-.31-33.86,7.77,13.25-7.77,13.26Zm0,41.22,7.77,13.26-7.77,13.25Zm0,41.23,7.77,13.25-7.77,13.25Zm0,41.22,7.77,13.25-7.77,13.25ZM185,198.13l8.6-14.66,8.6,14.66Zm18.7-5.36-7.78-13.25,7.78-13.25Zm0-41.22-7.78-13.25,7.78-13.25Zm0-41.22-7.78-13.25,7.78-13.26Zm0-41.22-7.78-13.26,7.78-13.25Z"/></g></g></svg>