<svg xmlns="http://www.w3.org/2000/svg" viewBox="0 0 2576.73 781.04"><defs><style>.cls-1{fill:#fff;opacity:0.05;}</style></defs><g id="Calque_2" data-name="Calque 2"><g id="Client"><g id="BG"><g id="Milky_space" data-name="Milky space"><g id="Space_fog" data-name="Space fog"><path class="cls-1" d="M2354.94,581.21c-34.71-40.59-89.84-96.73-168.74-145.54-261.13-161.55-563.35-107.14-659.47-92.55-265.2,40.27-690.63,40-1392.59-139.86L225.82,86.45C344.19,43.7,522.35-4.83,738,.39c265.64,6.43,439.64,90.85,635.66,158.14,216.54,74.33,535.75,153.76,963.52,159.16Z"/><path class="cls-1" d="M178.68,216.56A786,786,0,0,0,383.25,330.28c304.4,113.29,610.47,6.74,708.34-24.48,270-86.13,715.6-160.41,1485.14-106.41l-73.64,131.08C2387.31,393.32,2210,472.33,1983.23,505c-279.42,40.23-477.8-12.39-696-44.28-241-35.22-590.5-57.48-1039.5,12.2Z"/><path class="cls-1" d="M242.81,127C276.38,169,330.06,227.5,408.27,279.69,667.16,452.41,977.44,411.15,1076,400.74c272-28.73,705.33-10,1412.48,200.09l-98.56,112.73c-122.48,37.58-306.11,78.34-525.54,63.78-270.33-17.94-443.85-109.82-640.57-185.54C1006.5,508.15,684.83,415,249.29,391Z"/><path class="cls-1" d="M2412.81,527.26C2369.68,559.43,2302.93,602.39,2214,633c-294.21,101.44-583.9-17.13-676.6-52.19C1281.66,484.11,857.69,392.37,120.38,416.31l66.76,134c109,67.4,276.25,153.39,492.2,194.93,266,51.18,457.19,6.29,666.68-17.08,231.42-25.82,566.21-34.42,993.58,52.85Z"/><path class="cls-1" d="M2443.7,585.61a804.28,804.28,0,0,0-203.38-122.48c-305.09-126.37-621.6-33.19-722.68-6.24C1238.76,531.24,781.56,586.13,0,498.82L80.81,371.06c120.73-57.77,304.81-129,537.3-151.82,286.43-28.09,486.2,33.08,707,74.4,243.95,45.64,599,83,1059.49,32.87Z"/></g></g></g></g></g></svg>