<svg xmlns="http://www.w3.org/2000/svg" viewBox="0 0 2590 1643.81"><defs><style>.cls-1{fill:#606060;}.cls-2{fill:#3f3f3f;}.cls-3{fill:#4c4c4c;}.cls-4,.cls-5{fill:none;stroke-miterlimit:10;}.cls-4{stroke:#545454;stroke-width:2px;}.cls-5{stroke:#f3b110;stroke-linecap:round;stroke-width:8px;}.cls-6{fill:#878787;}.cls-7{fill:#3a3a3a;}.cls-8{fill:#494949;}.cls-9{fill:#515151;}.cls-10{fill:#707070;}</style></defs><g id="Calque_2" data-name="Calque 2"><g id="Client"><g id="BG"><g id="Space_items" data-name="Space items"><g id="Alien_station" data-name="Alien station"><g id="Foundation"><rect class="cls-1" x="1072.2" y="876.17" width="47.88" height="519.39" transform="translate(-458.01 859.62) rotate(-35.94)"/><rect class="cls-1" x="1469.29" y="876.17" width="47.88" height="519.39" transform="translate(2035.49 2931.93) rotate(-144.06)"/><path class="cls-2" d="M1422.71,1327.27,1295,1643.81l-127.71-316.54a544.21,544.21,0,0,1-39.52-203.59v-190h334.46v190A544.21,544.21,0,0,1,1422.71,1327.27Z"/><rect class="cls-1" x="1285.69" y="927.8" width="18.61" height="334.97"/></g><g id="deck"><path class="cls-3" d="M2590,926.66q-1295,158.91-2590,0H0q1277.75-527.46,2590,0Z"/></g><g id="lid"><path class="cls-1" d="M2446.23,895.7Q1295,1089.62,143.78,895.7h0q1151.22-583.38,2302.45,0Z"/><g id="Calque_137" data-name="Calque 137"><path id="Floot_city" data-name="Floot city" class="cls-4" d="M1872.14,677.32c11.11,5.48,17,11.2,17,17.09,0,39.56-266,71.63-594.14,71.63S700.86,734,700.86,694.41c0-5.89,5.89-11.61,17-17.09"/><path id="Floot_city-2" data-name="Floot city" class="cls-4" d="M2065.56,734.69c11.14,6.36,17,13,17,19.72,0,52.44-352.6,95-787.56,95s-787.56-42.52-787.56-95c0-6.76,5.86-13.36,17-19.72"/><path id="Floot_city-3" data-name="Floot city" class="cls-4" d="M2233.22,797.75c7.74,5.88,11.77,11.92,11.77,18.07,0,63.26-425.33,114.54-950,114.54S345,879.08,345,815.82c0-6.15,4-12.18,11.77-18.07"/></g><g id="Calque_138" data-name="Calque 138"><path id="Floot_city-4" data-name="Floot city" class="cls-5" d="M784,731c-52.78-10.71-83.09-23.21-83.09-36.56"/><path id="Floot_city-5" data-name="Floot city" class="cls-5" d="M1889.14,694.41c0,18.6-58.83,35.55-155.29,48.29"/><path id="Floot_city-6" data-name="Floot city" class="cls-5" d="M1257.27,849.26c-185.7-1.06-354.57-9.87-484.83-23.81"/><path id="Floot_city-7" data-name="Floot city" class="cls-5" d="M1874.34,818.73c-90.43,11.84-205.48,20.89-335.35,26"/><path id="Floot_city-8" data-name="Floot city" class="cls-5" d="M929.69,921.59C680.85,909.08,485.6,884.18,397,853.28"/><path id="Floot_city-9" data-name="Floot city" class="cls-5" d="M2233.16,834c-33.8,25.64-138.17,48.44-288.36,65.43"/></g></g><g id="City"><ellipse id="Floot_city-10" data-name="Floot city" class="cls-6" cx="1295" cy="649.21" rx="374.86" ry="45.2"/><g id="Building"><g id="Layer_3" data-name="Layer 3"><polygon class="cls-7" points="1419.14 618.92 1538.33 618.92 1538.33 137.61 1419.14 0 1419.14 618.92"/><polygon class="cls-7" points="1494.7 618.93 1566.24 618.93 1566.24 285.1 1494.7 189.66 1494.7 618.93"/><polygon class="cls-7" points="1195.44 618.16 1248.79 618.16 1248.79 362.84 1195.44 289.85 1195.44 618.16"/><polygon class="cls-7" points="1122.81 623.51 1069.46 623.51 1069.46 430.92 1122.81 375.86 1122.81 623.51"/><polygon class="cls-7" points="1286.5 609.23 1255.45 609.23 1255.45 497.14 1286.5 465.09 1286.5 609.23"/><polygon class="cls-7" points="1274.54 609.23 1298.45 609.23 1298.45 535.25 1274.54 514.1 1274.54 609.23"/><polygon class="cls-7" points="1370.82 614.6 1334.82 614.6 1334.82 466.34 1370.82 423.95 1370.82 614.6"/><polygon class="cls-7" points="1415.71 626.05 1353.63 626.05 1353.63 294.72 1415.71 199.99 1415.71 626.05"/></g><g id="Layer_2" data-name="Layer 2"><polygon class="cls-8" points="1069.46 647.6 962.78 647.6 962.78 262.42 1069.46 152.29 1069.46 647.6"/><polygon class="cls-8" points="1000.94 647.6 946.01 647.6 946.01 429.46 1000.94 367.09 1000.94 647.6"/><polygon class="cls-8" points="1053.59 647.6 1108.52 647.6 1108.52 369.39 1053.59 289.85 1053.59 647.6"/><polygon class="cls-8" points="1172.04 640.72 1206.22 640.72 1206.22 467.57 1172.04 418.07 1172.04 640.72"/><polygon class="cls-8" points="1643.1 640.72 1584.59 640.72 1584.59 342.58 1643.1 257.34 1643.1 640.72"/><polygon class="cls-9" points="1534.43 640.72 1579.26 640.72 1579.26 470.68 1534.43 422.07 1534.43 640.72"/><polygon class="cls-8" points="1396.78 640.72 1461.26 640.72 1461.26 396.11 1396.78 326.17 1396.78 640.72"/><polygon class="cls-8" points="1303.67 632.56 1331.04 632.56 1331.04 528.76 1303.67 499.08 1303.67 632.56"/><polygon class="cls-1" points="938.49 650.35 965.07 650.35 965.07 584.62 938.49 565.82 938.49 650.35"/></g><g id="Layer_1" data-name="Layer 1"><polygon class="cls-1" points="1625.28 657.88 1655.33 657.88 1655.33 543.88 1625.28 511.29 1625.28 657.88"/><polygon class="cls-1" points="1466.05 680.26 1436 680.26 1436 566.27 1466.05 533.68 1466.05 680.26"/><polygon class="cls-1" points="1575.89 664.25 1609.59 664.25 1609.59 593.75 1575.89 573.6 1575.89 664.25"/><polygon class="cls-1" points="1579.26 673.47 1552.62 673.47 1552.62 617.74 1579.26 601.81 1579.26 673.47"/><polygon class="cls-1" points="1513.62 680.26 1547.32 680.26 1547.32 527.21 1513.62 483.45 1513.62 680.26"/><polygon class="cls-1" points="1612.27 657.79 1645.97 657.79 1645.97 576.75 1612.27 553.59 1612.27 657.79"/><polygon class="cls-10" points="1518.13 680.26 1455.29 680.26 1455.29 441.92 1518.13 373.78 1518.13 680.26"/><polygon class="cls-1" points="1077.05 672.52 990.76 672.52 990.76 345.19 1077.05 251.61 1077.05 672.52"/><polygon class="cls-10" points="1187.04 676.81 1117.11 676.81 1117.11 411.56 1187.04 335.72 1187.04 676.81"/><polygon class="cls-1" points="1404.07 681.84 1372.64 681.84 1372.64 562.61 1404.07 528.52 1404.07 681.84"/><polygon class="cls-1" points="1374.47 681.84 1359.45 681.84 1359.45 613.61 1374.47 594.11 1374.47 681.84"/><polygon class="cls-1" points="1355.12 679.36 1340.11 679.36 1340.11 598.67 1355.12 575.61 1355.12 679.36"/><polygon class="cls-1" points="1396.78 688.66 1419.7 688.66 1419.7 633.76 1396.78 618.07 1396.78 688.66"/><polygon class="cls-1" points="1119.35 680.96 1069.46 680.96 1069.46 557.74 1119.35 522.5 1119.35 680.96"/><polygon class="cls-1" points="994.21 667.68 962.78 667.68 962.78 517.84 994.21 475 994.21 667.68"/><polygon class="cls-1" points="1247.74 692.41 1227.59 692.41 1227.59 615.96 1247.74 594.11 1247.74 692.41"/><polygon class="cls-1" points="1240.76 692.41 1257.27 692.41 1257.27 629.79 1240.76 611.88 1240.76 692.41"/><polygon class="cls-10" points="1147.02 686.97 1216.95 686.97 1216.95 522.13 1147.02 475 1147.02 686.97"/></g></g></g></g></g></g></g></g></svg>