<svg xmlns="http://www.w3.org/2000/svg" xmlns:xlink="http://www.w3.org/1999/xlink" viewBox="0 0 1785.92 1785.92"><defs><style>.cls-1,.cls-2{opacity:0.63;}.cls-1{fill:url(#Dégradé_sans_nom_489);}.cls-2{fill:url(#Dégradé_sans_nom_483);}.cls-3{opacity:0.2;}.cls-4{fill:#ff0df4;}.cls-5{fill:#fff;}</style><radialGradient id="Dégradé_sans_nom_489" cx="892.96" cy="892.96" r="892.96" gradientUnits="userSpaceOnUse"><stop offset="0.38" stop-color="#ff0df4" stop-opacity="0.96"/><stop offset="1" stop-color="#ff0df4" stop-opacity="0"/></radialGradient><radialGradient id="Dégradé_sans_nom_483" cx="927.28" cy="892.96" r="459.73" gradientUnits="userSpaceOnUse"><stop offset="0.75" stop-color="#ff0df4"/><stop offset="1" stop-color="#ff0df4" stop-opacity="0"/></radialGradient></defs><g id="Calque_2" data-name="Calque 2"><g id="About"><g id="Background"><g id="Space_item" data-name="Space item"><g id="Sun"><circle class="cls-1" cx="892.96" cy="892.96" r="892.96"/><circle class="cls-2" cx="927.28" cy="892.96" r="459.73"/><g id="Surface"><g id="Calque_82" data-name="Calque 82" class="cls-3"><g id="Calque_83" data-name="Calque 83"><path class="cls-4" d="M997.84,1061.05v-3.22a12,12,0,0,1,12-12H855.93a12,12,0,0,1-12-12v-3.21a12,12,0,0,1,12-12H967.14a11.92,11.92,0,0,1-3.88-8.79v-3.22a12,12,0,0,1,12-12h66.61a12,12,0,0,1-12-12V979.4a12,12,0,0,1,12-12h200.4a51.52,51.52,0,0,0,1.76-6.47c2.18-11-.11-22.83,1-34.21,1.09-11.17,5.64-22.31,5.64-33.76a56.22,56.22,0,0,0-.8-9H1054.63a12,12,0,0,1-12-12v-3.21a12,12,0,0,1,12-12h-32.75a12,12,0,0,1-12-12v-3.22a12,12,0,0,1,12-12h222.81c-.15-1.53-.36-3.06-.66-4.57-1.59-8-5.46-15.48-8.72-23H1116.84a12,12,0,0,1-12-12v-3.22a12,12,0,0,1,12-12h111.37a71.65,71.65,0,0,0-4-15.11,51.31,51.31,0,0,0-3-6,12,12,0,0,1-4,.68H1031.52a12,12,0,0,1-12-12v-3.21a12,12,0,0,1,12-12h172.81c-4.23-9.18-6.77-19.37-12.34-27.69-6.32-9.44-16.29-16.16-23.48-24.91s-11.86-19.85-19.87-27.86-19.1-12.68-27.87-19.88-15.47-17.16-24.9-23.47-21.18-8.71-31.2-14.08-18.49-13.81-29-18.16-22.45-4.39-33.35-7.69-20.82-9.9-32-12.12c-11-2.18-22.83.12-34.22-1-11.17-1.09-22.3-5.63-33.75-5.63s-22.59,4.54-33.76,5.63c-11.38,1.11-23.18-1.19-34.21,1-11.2,2.22-21.23,8.85-32,12.12s-22.93,3.36-33.35,7.69-19,12.83-29,18.16-21.8,7.78-31.2,14.08-16.15,16.28-24.9,23.47S664.05,638.64,656,646.66s-12.68,19.1-19.88,27.86S619,690,612.68,699.42s-8.71,21.18-14.07,31.2-13.81,18.5-18.17,29-4.38,22.44-7.69,33.35-9.89,20.81-12.11,32c-2.18,11,.11,22.83-1,34.21C558.56,870.37,554,881.5,554,893s4.55,22.59,5.64,33.76c1.1,11.38-1.19,23.18,1,34.21,2.22,11.19,8.85,21.23,12.11,32s3.37,22.93,7.69,33.35,12.83,19,18.17,29,7.78,21.79,14.07,31.19,16.29,16.16,23.48,24.91S648,1131.25,656,1139.26s19.1,12.67,27.87,19.87,15.47,17.16,24.9,23.48,21.18,8.71,31.2,14.08,18.49,13.8,29,18.16,22.45,4.39,33.35,7.69,20.82,9.9,32,12.11c11,2.18,22.84-.11,34.22,1,11.17,1.08,22.3,5.63,33.76,5.63s22.58-4.55,33.75-5.63c11.38-1.11,23.18,1.18,34.22-1,11.19-2.21,21.23-8.84,32-12.11s22.92-3.37,33.34-7.69,19-12.83,29-18.16,21.8-7.79,31.2-14.08,16.16-16.29,24.9-23.47,19.85-11.87,27.87-19.88,12.67-19.1,19.87-27.86,17.16-15.47,23.48-24.91a69.45,69.45,0,0,0,6.64-13.44H1009.84A12,12,0,0,1,997.84,1061.05Z"/><path class="cls-5" d="M1212.07,1045.83H1009.84a12,12,0,0,0-12,12v3.22a12,12,0,0,0,12,12h188.79c2.35-6,4.43-12.15,7.43-17.75A93,93,0,0,1,1212.07,1045.83Z"/><path class="cls-5" d="M967.14,1018.62H855.93a12,12,0,0,0-12,12v3.21a12,12,0,0,0,12,12h356.14c4.45-6.31,9.23-12.48,12.16-19.54.6-1.46,1.12-2.95,1.58-4.46H975.26A11.93,11.93,0,0,1,967.14,1018.62Z"/><path class="cls-5" d="M1029.87,979.4v3.21a12,12,0,0,0,12,12h189.57c.16-.56.31-1.12.48-1.67,2.62-8.66,7.42-16.85,10.35-25.54h-200.4A12,12,0,0,0,1029.87,979.4Z"/><path class="cls-5" d="M1244.84,856.78H1054.63a12,12,0,0,0-12,12V872a12,12,0,0,0,12,12h195.23c-1.36-8.34-4-16.56-4.84-24.79C1245,858.39,1244.89,857.59,1244.84,856.78Z"/><path class="cls-5" d="M1009.88,841.56v3.22a12,12,0,0,0,12,12h223c-.53-9.06.72-18.33-.15-27.22H1021.88A12,12,0,0,0,1009.88,841.56Z"/><path class="cls-5" d="M1104.84,786.74V790a12,12,0,0,0,12,12h118.47a85,85,0,0,1-3.39-9c-1.79-5.9-2.63-12.12-3.71-18.24H1116.84A12,12,0,0,0,1104.84,786.74Z"/><path class="cls-5" d="M1019.52,739.12v3.21a12,12,0,0,0,12,12h185.77a12,12,0,0,0,4-.68c-4.58-7.93-10.89-15-15.17-23-.62-1.14-1.19-2.31-1.74-3.5H1031.52A12,12,0,0,0,1019.52,739.12Z"/><path class="cls-5" d="M963.26,1006.61v3.22a11.92,11.92,0,0,0,3.88,8.79h259.54c1.94-7.84,2.63-16.17,4.76-24H975.26A12,12,0,0,0,963.26,1006.61Z"/><path class="cls-5" d="M975.26,1021.83h250.55q.48-1.59.87-3.21H967.14A11.93,11.93,0,0,0,975.26,1021.83Z"/><rect class="cls-5" x="674.98" y="1152.55" width="253.42" height="27.21" rx="12"/><rect class="cls-5" x="674.98" y="1125.33" width="397.98" height="27.21" rx="12"/><rect class="cls-5" x="654.57" y="1098.12" width="323.8" height="27.21" rx="12"/><rect class="cls-5" x="663.65" y="926.23" width="334.19" height="27.21" rx="12"/><rect class="cls-5" x="670.01" y="829.37" width="268.03" height="27.21" rx="12"/><rect class="cls-5" x="605.95" y="802.35" width="268.03" height="27.21" rx="12"/><rect class="cls-5" x="702.81" y="754.33" width="350.73" height="27.21" rx="12"/><rect class="cls-5" x="708.71" y="727.12" width="209.76" height="27.21" rx="12"/><rect class="cls-5" x="683.49" y="900.29" width="218.85" height="27.21" rx="12"/><rect class="cls-5" x="694.16" y="953.44" width="251.25" height="27.21" rx="12"/></g></g></g></g></g></g></g></g></svg>